<?xml version="1.0" standalone="no"?>
<!DOCTYPE svg PUBLIC "-//W3C//DTD SVG 1.1//EN" "http://www.w3.org/Graphics/SVG/1.1/DTD/svg11.dtd" >
<svg xmlns="http://www.w3.org/2000/svg">
<metadata>
This is a custom SVG webfont generated by Font Squirrel.
</metadata>
<defs>
<font id="IconPackRegular" horiz-adv-x="1613" >
<font-face units-per-em="2048" ascent="1536" descent="-512" />
<missing-glyph horiz-adv-x="1024" />
<glyph unicode=" "  horiz-adv-x="1024" />
<glyph unicode="&#x09;" horiz-adv-x="1024" />
<glyph unicode="&#xa0;" horiz-adv-x="1024" />
<glyph unicode="-" horiz-adv-x="1705" d="M-195 -293l1995 2388l98 -82l-1994 -2390z" />
<glyph unicode="1" horiz-adv-x="1689" d="M135 616q0 147 55 279q55 129 154 227q96 96 225 152q129 55 277 55q147 0 278 -55q129 -55 228 -152q96 -98 151 -227q55 -131 56 -279v-710h-713q-147 0 -277 55q-129 55 -225 154q-98 96 -154 225q-55 129 -55 276z" />
<glyph unicode="2" horiz-adv-x="1705" d="M133 616q0 147 55 279q55 129 154 227q96 96 227 152q129 55 277 55h710v-713q0 -147 -55 -276t-151 -225q-98 -98 -228 -154q-129 -55 -276 -55t-277 55q-131 55 -227 154q-98 96 -154 225q-55 129 -55 276z" />
<glyph unicode="3" horiz-adv-x="1705" d="M133 -94v712q0 147 55 277q55 129 154 227q96 96 225 152q129 55 277 55q147 0 278 -55q129 -55 228 -152q96 -98 151 -227t55 -277q0 -147 -55 -276q-55 -131 -151 -227q-98 -98 -228 -154q-131 -55 -278 -55h-711z" />
<glyph unicode="4" horiz-adv-x="1705" d="M131 618v711h713q147 0 276 -55t228 -152q96 -98 151 -227t55 -277q0 -147 -55 -276q-55 -131 -151 -227q-98 -98 -228 -154q-129 -55 -276 -55t-277 55q-131 55 -227 154q-98 96 -154 227q-55 129 -55 276z" />
<glyph unicode="A" horiz-adv-x="2088" d="M324 610q0 143 57 275q57 129 156 227q98 98 229 156q129 57 272 57q141 0 271 -57q127 -57 225 -156q96 -98 156 -227q57 -131 57 -275q0 -141 -57 -268q-59 -129 -156 -225q-98 -98 -225 -156q-129 -59 -271 -59q-143 0 -272 59q-131 57 -229 156q-98 96 -156 225 q-57 127 -57 268zM561 754l236 -234l-45 -336l286 193l330 -193l-96 336l284 234l-378 49l-140 334l-143 -334z" />
<glyph unicode="B" horiz-adv-x="1689" d="M127 614q0 143 57 273q57 129 156 227q96 96 225 154q127 57 269 57q141 0 270 -57t227 -154q98 -98 156 -227q57 -129 57 -273q0 -160 -57 -288q-57 -131 -156 -224q-98 -92 -227 -143t-270 -51t-269 51q-129 51 -225 143q-98 92 -156 224q-57 128 -57 288zM457 287 q0 -37 30 -43q29 -6 64 -6h237q-18 53 -45 104q-27 49 -61 90q-35 39 -78 64q-45 25 -98 24zM506 664q88 0 158 -33t118 -86q49 -53 76 -121q25 -68 25 -137h141q0 106 -41 194t-106 154q-66 66 -152 110q-86 43 -174 60zM551 946q125 -16 237 -76q111 -59 195 -147 q84 -90 133 -201q49 -113 49 -235l142 45q-16 141 -76 272q-61 129 -158 232q-98 100 -229 168q-133 68 -293 83v-141z" />
<glyph unicode="C" horiz-adv-x="1673" d="M104 614q0 141 58 271q57 127 155 225q96 96 226 154q127 57 268 57t270 -57q127 -57 226 -154q96 -98 153 -225q57 -129 58 -271q0 -141 -58 -268q-57 -129 -153 -225q-98 -98 -226 -156q-129 -57 -270 -57t-268 57q-129 57 -226 156q-98 96 -155 225q-58 127 -58 268z M434 426h281v-96h-189v-92h568q12 0 22 6q10 4 19 14q6 8 6 25v47h-189v96h234v563h-707q-16 0 -24 -6q-10 -8 -15 -16q-6 -10 -6 -23v-518zM526 518v332l49 47h472q16 0 26 -6q10 -8 14 -19q6 -10 7 -22v-332h-568z" />
<glyph unicode="D" horiz-adv-x="1732" d="M152 614q0 160 57 291q57 129 153 221t226 144q127 51 268 51t270 -51q127 -51 226 -144q96 -92 153 -221q57 -131 58 -291q0 -141 -58 -268q-57 -129 -153 -225q-98 -96 -226 -154q-129 -57 -270 -57t-268 57q-129 57 -226 154q-96 96 -153 225q-57 127 -57 268z M340 662q0 -72 41 -132q41 -59 106 -102q66 -45 152 -70q84 -25 172 -24l-96 -191l379 213q27 14 45 23q35 18 75 45q41 27 78 61q35 35 60 80q23 43 22 97q0 70 -41 131q-41 59 -110 104q-72 45 -166 70t-201 24q-104 0 -199 -24q-94 -25 -163 -70q-72 -45 -113 -104 q-41 -61 -41 -131z" />
<glyph unicode="E" horiz-adv-x="1716" d="M145 614q0 141 58 271q57 129 155 227q96 96 226 154q127 57 268 57t270 -57t228 -154q96 -98 153 -227t58 -271q0 -141 -50 -268q-51 -129 -139 -225q-90 -98 -211 -156q-123 -57 -264 -57l379 612l-424 234q-35 0 -64 -6q-31 -6 -30 -39l-283 -422v-94h49q12 0 23 6 q8 4 16 14q6 8 6 25l142 282h47q18 0 28 -6q10 -8 15 -16q6 -10 6 -23l-191 -282q0 -37 -28 -43q-29 -6 -64 -7h-49q-16 0 -24 9q-10 8 -15 22q-4 12 -4 31q-2 16 -2 33q-18 0 -20 8t2 22l12 31q6 16 6 33l281 422l47 51l-189 94l-376 -567q0 35 -7 71l-16 70q-10 35 -16 72 q-9 34 -9 69z" />
<glyph unicode="F" horiz-adv-x="1740" d="M152 614q0 160 57 291q57 129 156 221q96 92 225 144q129 51 270 51t270 -51q127 -51 226 -144q96 -92 153 -221q57 -131 58 -291q0 -141 -58 -270q-57 -129 -153 -225q-98 -98 -226 -156q-129 -57 -270 -57t-270 57t-225 156q-98 96 -156 225q-57 129 -57 270zM434 567 l473 -473l471 473l-471 471h-282l-191 -188v-283zM543 834q0 29 35 63q35 35 65 35q29 0 29 -35q35 -35 35 -63q0 -31 -35 -31q0 -35 -29 -35q-31 0 -65 35q-35 0 -35 31z" />
<glyph unicode="G" horiz-adv-x="1740" d="M143 610q0 143 58 273q57 129 155 227t228 156q127 57 268 57q143 0 272 -57t228 -156q98 -98 155 -227t58 -273q0 -160 -58 -291q-57 -131 -155 -223t-228 -143q-129 -51 -272 -51q-141 0 -268 51q-129 51 -228 143q-98 92 -155 223q-58 131 -58 291zM381 610l94 -47 q0 -18 8 -35q6 -18 17 -34l16 -37q6 -18 6 -37l-47 -139l191 -144l92 94h190l94 -94l191 144l-49 139q37 37 43 74q6 35 6 69l94 47l-47 238h-143q-35 35 -70 65q-37 29 -72 29v143h-237l-47 -143q-35 0 -70 -29q-37 -31 -72 -65h-141z" />
<glyph unicode="H" horiz-adv-x="1748" d="M158 612q0 141 57 271q57 127 156 225q98 98 227 156q127 57 268 57t271 -57q127 -57 225 -156q96 -98 154 -225q57 -129 57 -271q0 -141 -57 -268q-57 -129 -154 -225q-98 -98 -225 -156q-129 -57 -271 -57q-141 0 -268 57q-129 57 -227 156q-98 96 -156 225 q-57 127 -57 268zM393 473l144 -188l92 45l28 -25q10 -10 21 -14q8 -4 18 -4q10 -2 29 -2l47 -146h234v146q37 0 67 6q29 4 29 39l141 -45l96 188l-96 94v92l96 95l-96 188l-141 -45q0 16 -8 27q-8 10 -21 18l-31 19q-18 10 -36 28v96h-234l-47 -96l-96 -92l-92 45 l-144 -188l96 -95v-92z" />
<glyph unicode="I" horiz-adv-x="1724" d="M135 612q0 141 58 271q57 129 155 227q96 98 225 156q127 57 269 57q141 0 270 -57t227 -156q98 -98 156 -227q57 -129 57 -271q0 -160 -57 -288q-57 -131 -156 -224q-98 -92 -227 -143t-270 -51t-269 51q-129 51 -225 143q-98 92 -155 224q-58 128 -58 288zM324 612 l141 -139l-47 -190h188l96 -189l140 94l143 -94l96 189h189l-49 190l141 139l-141 97l49 190l-189 45l-96 141l-143 -94l-140 94l-96 -141l-188 -45l47 -190zM557 680q14 57 49 106t86 82q51 31 105 31q211 0 284 -143q-18 18 -43 35q-27 16 -53 26q-27 8 -51 6 q-27 -2 -45 -20q-70 0 -129 -25q-61 -27 -105 -69q-45 -45 -69 -105q-27 -61 -27 -131v94q-10 28 -10 58q0 27 8 55z" />
<glyph unicode="J" horiz-adv-x="1732" d="M137 614q0 143 58 273q57 129 155 227q96 96 225 154q129 57 271 57q143 0 272 -57t228 -154q96 -98 153 -227t57 -273q0 -141 -57 -270t-153 -225q-98 -98 -228 -156q-129 -57 -272 -57q-141 0 -271 57q-129 57 -225 156q-98 96 -155 225q-58 129 -58 270zM420 332h854 v379l-285 -191q-18 0 -35 -6l-34 -16q-18 -10 -37 -17q-18 -8 -37 -8q-18 0 -35 8q-18 6 -35 17l-35 16q-18 6 -36 6l-285 191v-379zM420 852l379 -238q0 -18 6 -26q6 -10 16 -15q10 -6 25 -6q18 0 28 2q10 0 21 4q8 4 18 15q10 8 29 26l332 238v47h-854v-47z" />
<glyph unicode="K" horiz-adv-x="1732" d="M141 614q0 141 58 271q57 127 155 225q96 96 226 154q127 57 268 57q143 0 256 -35q111 -35 217 -104l-565 -568l235 -284l518 520q35 -35 41 -98q6 -66 6 -138q0 -141 -57 -270t-153 -225q-98 -98 -228 -156q-129 -57 -270 -57t-268 57q-129 57 -226 156 q-98 96 -155 225q-58 129 -58 270zM612 236l332 49l-237 280z" />
<glyph unicode="L" horiz-adv-x="1740" d="M145 614q0 141 58 271q57 129 155 227q96 96 226 154q129 57 270 57q72 0 141 -8q70 -10 133 -33q61 -23 113 -57q51 -37 88 -90l-475 -521l-238 238l-188 -193l426 -423l664 661q18 -16 28 -49q8 -35 13 -74q4 -41 6 -82v-78q0 -141 -58 -270q-57 -129 -155 -227 t-228 -156q-129 -57 -270 -57t-270 57t-226 156q-98 98 -155 227q-58 129 -58 270z" />
<glyph unicode="M" horiz-adv-x="1724" d="M129 612q0 141 59 271q57 127 156 225q96 98 225 156q129 57 271 57q141 0 270 -57q127 -57 225 -156q98 -98 156 -225q57 -129 57 -271q0 -141 -57 -270t-156 -225q-98 -98 -225 -156q-129 -59 -270 -59t-271 59q-129 57 -225 156q-98 96 -156 225q-59 129 -59 270z M553 471h192l283 -283v848l-283 -233h-192v-332z" />
<glyph unicode="N" horiz-adv-x="1732" d="M137 608q0 143 60 273q57 129 155 227q96 98 226 156q129 57 270 57q143 0 272 -57t228 -156q98 -98 155 -227t58 -273q0 -141 -58 -270q-57 -129 -155 -225q-98 -98 -228 -156q-129 -59 -272 -59q-141 0 -270 59q-129 57 -226 156q-98 96 -155 225q-60 129 -60 270z M565 801q0 -18 6 -35q6 -18 17 -33q10 -16 24 -28q12 -14 23 -31l16 -31q6 -16 6 -35v-473q0 -18 9 -26q6 -10 16 -15q10 -6 27 -6q35 0 41 6t6 41v473q0 18 6 35q6 16 16 31q8 16 23 31q35 0 41 30q6 29 6 66v282h-47v-235h-45v235h-47v-235h-52v235h-45zM848 279 q0 -37 10 -70q8 -35 27 -62q18 -27 45 -43t61 -16q37 0 64 16t45 43q16 27 24 62q8 33 9 70q0 51 -7 81q-8 29 -16 48l-14 30q-8 12 -9 31q-35 0 -40 29q-6 29 -7 63v477q0 16 -6 27q-8 8 -18 12q-10 6 -25 6q-35 0 -41 -4q-6 -6 -6 -41v-477q0 -16 -6 -33q-8 -18 -18 -30 q-10 -16 -23 -29q0 -18 -8 -31l-17 -30q-10 -18 -16 -48q-8 -30 -8 -81z" />
<glyph unicode="O" horiz-adv-x="1773" d="M184 618q0 145 56 275q55 129 151 225t225 152q129 55 275 55q145 0 274 -55t226 -152q96 -96 151 -225t55 -275q0 -145 -55 -274t-151 -225t-226 -152q-129 -55 -274 -55t-275 55q-129 55 -225 152q-96 96 -151 225q-56 129 -56 274zM477 274q0 -14 10 -22q8 -10 21 -10 h143q27 0 27 32v299q0 31 -27 31h-143q-12 0 -21 -8q-10 -8 -10 -23v-299zM770 274q0 -33 29 -32h143q12 0 23 10q8 8 8 22v514q0 12 -8 21q-10 6 -23 6h-143q-29 0 -29 -27v-514zM1061 274q0 -14 8 -22q8 -10 18 -10h144q33 0 33 32v736q0 33 -33 32h-144q-10 0 -18 -8 q-8 -10 -8 -24v-736z" />
<glyph unicode="P" horiz-adv-x="1708" d="M133 610q0 143 57 273q57 129 156 227q98 98 227 156q127 57 269 57q143 0 272 -57t227 -156q98 -98 156 -227q57 -129 57 -273q0 -141 -57 -268q-57 -129 -156 -227q-98 -98 -227 -156q-129 -57 -272 -57q-141 0 -269 57q-129 57 -227 156q-98 98 -156 227 q-57 127 -57 268zM418 281l94 -48h567v332h236v283h-236v235h-282v-235h-379v-567zM653 610v191h189v190h190v-190h191v-191h-191v-188h-190v188h-189z" />
<glyph unicode="Q" horiz-adv-x="1724" d="M135 612q0 141 60 271q57 129 155 227q96 96 225 156q127 57 269 57q141 0 270 -57q129 -59 227 -156q98 -98 156 -227q57 -129 57 -271q0 -141 -57 -268q-57 -129 -156 -227q-98 -98 -227 -156q-129 -57 -270 -57h-47l-142 1042q0 33 -6 39q-6 4 -41 4q-12 0 -18 -6 q-4 -4 -2 -12t20 -25l94 -1042q-123 37 -227 106q-104 68 -180 162q-76 92 -117 205q-43 112 -43 235zM702 897l95 -426q72 0 143 -12q70 -12 141 -17q15 -1 31 -1q55 0 111 12q72 14 145 67l-63 29q-29 10 -52 24q-23 12 -41 33q-20 18 -38 56q18 35 28 63l41 131 q10 37 29 90q-72 -53 -142 -67q-56 -11 -111 -12l-32 1q-72 4 -141 17q-72 12 -144 12z" />
<glyph unicode="R" horiz-adv-x="1740" d="M152 614q0 147 55 277q55 129 151 227q96 96 226 152q129 55 276 55t277 -55q129 -55 227 -152q96 -98 152 -227q55 -129 55 -277q0 -143 -53 -268q-53 -127 -146 -223q-94 -96 -217 -154q-125 -57 -266 -63v395q18 0 33 14q12 14 12 33v182l96 48l-160 245l-467 -397 l78 -117l264 129v-90q0 -18 15 -33q12 -14 33 -14v-393q-135 12 -252 74q-117 59 -203 155q-86 94 -135 217q-51 123 -51 260zM928 874l174 -266h11q24 0 50 6q31 6 60 27q35 23 57 55q20 33 29 72q3 18 3 37t-3 39q-8 37 -31 71q-45 70 -123 86q-21 4 -42 5q-57 0 -107 -33 q-29 -18 -48 -43q-20 -27 -30 -56z" />
<glyph unicode="S" horiz-adv-x="1732" d="M139 614q0 147 56 277q55 129 151 227q96 96 225 152q129 55 277 55q147 0 276 -55t226 -152q96 -98 153 -227q55 -129 56 -277q0 -145 -56 -274q-57 -129 -153 -225t-226 -152q-129 -57 -276 -57t-277 57q-129 55 -225 152q-96 96 -151 225q-56 129 -56 274zM365 614 q0 -100 38 -186q37 -88 103 -154t153 -102q88 -39 189 -39q100 0 188 39q88 37 154 102q66 66 104 154q37 86 37 186t-37 189q-39 88 -104 155q-66 66 -154 105q-88 37 -188 37t-189 -37q-88 -39 -153 -105q-66 -68 -103 -155q-38 -89 -38 -189zM719 608l74 357q6 29 28 28 q20 0 27 -28l61 -291l252 -51l37 -11q29 -2 29 -26q0 -23 -29 -31q-6 0 -55 -10l-299 -62q-14 -4 -27 -3q-24 0 -45 12q-31 16 -45 49q-11 20 -11 43q0 12 3 24z" />
<glyph unicode="T" horiz-adv-x="1697" d="M199 696q16 133 88 246q70 113 174 193t233 118q88 26 179 26q40 0 81 -5q135 -16 248 -80q113 -63 193 -164q78 -100 116 -229q26 -91 26 -191q0 -44 -5 -90q-16 -135 -80 -248q-63 -113 -164 -192q-100 -80 -229 -117q-92 -27 -194 -27q-43 0 -87 5q-133 16 -246 88 q-115 70 -192 174q-80 104 -119 233q-27 89 -27 182q0 39 5 78zM469 520h264l-45 -268l533 -45l47 489l-226 45v222l-487 88zM643 651v223h266l-41 -268zM868 385v90h131v131h134l-46 -264z" />
<glyph unicode="a" horiz-adv-x="1781" d="M119 817l557 51l203 457l254 -457l505 -51l-403 -405l149 -506l-505 254l-457 -254l104 506z" />
<glyph unicode="b" horiz-adv-x="1724" d="M104 -31l68 408q100 0 188 -35q86 -37 150 -100q63 -63 100 -150q35 -88 35 -188h-405q-25 0 -50 2q-25 0 -43 6q-20 6 -30 20q-13 12 -13 37zM172 647l68 271q176 -27 325 -111q150 -84 264 -211q113 -127 189 -287q74 -162 98 -340h-203q-25 129 -86 242 q-63 111 -157 201q-94 88 -219 149q-127 59 -279 86zM240 1118v203q184 0 352 -47q168 -49 313 -135q143 -86 262 -205q119 -121 207 -262q88 -143 144 -303q55 -162 71 -330l-203 -70q-25 227 -120 426q-98 199 -250 350q-154 152 -350 250q-199 96 -426 123z" />
<glyph unicode="c" horiz-adv-x="1765" d="M156 279v1011q0 18 4 23q2 2 20 2h1366q18 0 35 -2q14 -4 14 -23v-1011q0 -18 -14 -33q-16 -16 -35 -17h-454v-127h327q18 0 35 -14q14 -16 14 -37v-100q0 -18 -14 -35q-16 -16 -35 -16h-1112l-12 16l-8 16q-4 8 -4 19v100q0 10 4 19l8 16l12 16h328v127h-455 q-18 0 -20 17q-4 15 -4 33zM332 457l16 -13l17 -8q8 -4 18 -4h985l27 25v630q0 10 -4 19l-23 33h-985q-20 0 -35 -15q-16 -16 -16 -37v-630z" />
<glyph unicode="d" horiz-adv-x="1822" d="M182 682q0 94 62 178q61 84 162 148q100 61 229 98q129 35 262 35q154 0 285 -35q129 -37 225 -98q94 -63 149 -148q53 -84 54 -178q0 -57 -33 -113q-33 -57 -80 -108q-47 -53 -98 -101q-53 -47 -92 -86q-59 -20 -154 -69l-186 -105l-224 -133l103 254q-133 0 -254 37 q-121 35 -211 98q-92 61 -145 146q-54 84 -54 180z" />
<glyph unicode="e" horiz-adv-x="1697" d="M180 377l565 944l234 -139q-16 0 -27 -8l-18 -17q-8 -10 -19 -16q-10 -8 -28 -8l-330 -519v-92q0 -18 8 -28q6 -10 17 -19l16 -20q8 -10 8 -27h94q16 0 33 6q16 6 31 17q16 8 31 22l184 330q18 0 20 6t-2 16q-6 10 -18 25h-45l-189 -328h-94v45l328 520q0 33 31 39t65 7 l471 -283l-612 -942z" />
<glyph unicode="f" horiz-adv-x="1748" d="M184 639v420l262 262h418l735 -733l-681 -682zM352 1008q0 -66 41 -107q40 -39 79.5 -39t78.5 39q41 41 41 107q0 63 -41 104q-39 40 -78.5 40t-79.5 -40q-41 -41 -41 -104z" />
<glyph unicode="g" horiz-adv-x="1757" d="M104 657l113 328h201q37 47 90 84t110 66l64 188h350l51 -188q66 -29 115 -66t86 -84h201l112 -328l-163 -112q-10 -66 -27 -127q-18 -63 -47 -111l61 -190l-288 -213l-164 127q-29 -10 -56 -11q-27 -2 -55 -2q-39 0 -67 2q-29 0 -58 11l-164 -127l-288 213l63 190 q-29 47 -47 111q-18 61 -29 127zM582 596q0 -51 22 -98q20 -49 60 -86q37 -37 88 -58q49 -23 106 -22q51 0 98 22q47 20 84 58q37 37 60 86q20 47 20 98q0 55 -20 106q-23 49 -60 89q-37 37 -84 59q-47 20 -98 20q-57 0 -106 -20q-51 -23 -88 -59q-39 -39 -60 -89 q-22 -51 -22 -106z" />
<glyph unicode="h" horiz-adv-x="1665" d="M174 424l125 94q-8 23 -8 47q-2 23 -2 47q0 23 2 45q0 20 8 37l-125 105q23 88 70 166q45 76 106 137l148 -53q31 33 69 51q39 18 86 35l21 155q47 16 90 25q41 6 88 6q96 0 176 -31l23 -155q47 -16 86 -35q39 -18 69 -51l146 53q129 -125 178 -303l-115 -105v-176 l115 -94q-25 -86 -70 -168t-108 -145l-146 63q-63 -63 -155 -94l-23 -156q-41 -8 -84 -14q-45 -8 -92 -8t-88 8l-90 14l-21 156q-92 31 -155 94l-148 -63q-61 63 -106 145q-47 82 -70 168zM559 612q0 -63 25 -116q23 -53 63 -93q41 -39 94 -61q51 -23 111 -23q61 0 115 23 q53 23 92 61q39 39 61 93q23 53 23 116q0 59 -23 113q-23 51 -61 92q-39 39 -92 64q-53 23 -115 22q-59 0 -111 -22q-53 -25 -94 -64q-41 -41 -63 -92q-25 -54 -25 -113z" />
<glyph unicode="i" horiz-adv-x="1748" d="M100 616l176 185l-36 250l249 43l125 229l228 -119l229 119l125 -229l250 -43l-39 -250l178 -185l-178 -182l39 -258l-250 -43l-125 -229l-229 119l-228 -119l-125 229l-249 43l36 258zM410 559q0 -66 36 -125v12q0 88 29 168q31 84 88 154q57 68 137 115q78 45 172 59 q31 4 63 4q55 0 107 -12q82 -20 154 -60q-72 94 -180 144q-81 37 -171 37q-30 0 -61 -4q-92 -10 -166 -54q-76 -45 -126 -112q-51 -68 -74 -152q-14 -51 -14 -105q0 -34 6 -69z" />
<glyph unicode="j" horiz-adv-x="1830" d="M94 63v771l572 -385q57 -39 114 -58q55 -18 121 -18q137 0 250 76l571 385v-771h-1628zM94 993v162h1628v-162l-684 -458q-37 -37 -137 -37q-37 0 -72 10q-35 8 -63 27z" />
<glyph unicode="k" horiz-adv-x="1798" d="M219 -98l113 397l286 -287zM387 356l754 760l297 -295l-762 -764zM1204 1174l121 129q23 14 51 14q29 0 43 -14l203 -203q24 -24 24 -47.5t-24 -46.5l-131 -129z" />
<glyph unicode="l" horiz-adv-x="1906" d="M258 567l238 244l284 -287l709 715l240 -238l-949 -952z" />
<glyph unicode="m" horiz-adv-x="1193" d="M174 313v590h340l498 416v-1415l-498 409h-340z" />
<glyph unicode="n" horiz-adv-x="1325" d="M164 920l14 387h74v-320q0 -12 10 -20q10 -10 21 -11q10 0 20 11q10 8 10 20v320h78v-320q0 -12 10 -20q8 -10 21 -11q12 0 22 11q8 8 9 20v320h71l17 -387q0 -53 -15 -99q-16 -45 -57 -61q-16 -8 -27 -25q-10 -14 -16 -39q-8 -25 -8 -65l10 -649q0 -31 -22 -52 q-25 -20 -56 -20t-51 20q-23 20 -23 52l13 649q0 41 -8 65q-8 25 -19 39q-12 16 -26 25q-43 16 -58 61q-14 46 -14 99zM721 1038q0 57 14 111q12 51 39 90q25 39 64 61q39 23 90 23q49 0 86 -23t63 -61q25 -39 39 -90q12 -53 12 -111q0 -66 -10 -108q-12 -45 -26 -74 q-16 -29 -31 -45q-16 -16 -25 -27q-6 -10 -14 -20t-14 -27q-8 -16 -13 -41q-6 -25 -6 -65l10 -649q0 -31 -20 -52q-23 -20 -51 -20q-33 0 -56 20t-22 52l10 649q0 41 -4 65q-4 25 -10 41q-8 16 -17 27l-16 20q-8 12 -22 29q-16 16 -31 45q-16 29 -27 72q-12 42 -12 108z" />
<glyph unicode="o" horiz-adv-x="1656" d="M133 -35v531q0 23 17 39q14 14 36 14h250q23 0 37 -14q14 -16 14 -39v-531q0 -23 -14 -37q-14 -16 -37 -16h-250q-23 0 -36 16q-17 14 -17 37zM647 -35v909q0 23 17 39q14 14 36 15h250q23 0 39 -15q14 -16 15 -39v-909q0 -23 -15 -37q-16 -16 -39 -16h-250q-23 0 -36 16 q-17 14 -17 37zM1163 -35v1305q0 23 17 39q14 14 37 14h249q23 0 39 -14q14 -16 15 -39v-1305q0 -23 -15 -37q-16 -16 -39 -16h-249q-23 0 -37 16q-17 14 -17 37z" />
<glyph unicode="p" horiz-adv-x="1624" d="M100 -100v1071h578v348h493v-348h345v-492h-345v-579h-1071zM457 608h346v-323h246v323h342v246h-342v344h-246v-344h-346v-246z" />
<glyph unicode="q" horiz-adv-x="1226" d="M172 1266q-2 23 10 39q12 14 35 18h5q16 0 30 -10q16 -12 20 -35l185 -1368h-101zM340 1219q86 -2 172 -21q86 -18 174 -27q29 -3 58 -2q58 0 116 11q86 14 174 80q-23 -72 -41 -117q-18 -47 -37 -84l-82 -156q37 -41 66 -65q27 -27 53 -45q27 -20 54 -35q25 -16 59 -33 q-90 -66 -176 -80q-56 -9 -111 -9q-32 0 -63 3q-86 8 -172 27q-86 16 -172 16z" />
<glyph unicode="r" horiz-adv-x="1624" d="M94 274l719 607l248 -375l-848 -412zM899 963q16 45 47 84q29 39 74 67q51 35 113 45q30 5 59 5t57 -5q55 -12 107 -45q49 -35 84 -86q35 -53 47 -113q5 -28 5 -55q0 -32 -7 -63q-12 -57 -45 -107q-33 -51 -86 -86q-41 -29 -90 -41q-37 -9 -74 -9l-25 1z" />
<glyph unicode="s" horiz-adv-x="1724" d="M145 614q0 147 56 277q55 129 151 227q96 96 226 152q129 55 276 55t276 -55t226 -152q96 -98 153 -227q55 -129 56 -277q0 -145 -56 -274q-57 -129 -153 -225t-226 -152q-129 -57 -276 -57t-276 57q-129 55 -226 152q-96 96 -151 225q-56 129 -56 274zM371 614 q0 -100 39 -186q37 -88 102 -154q66 -66 154 -102q88 -39 188 -39t188 39q88 37 154 102q66 66 104 154q37 86 37 186t-37 189q-39 88 -104 155q-66 66 -154 105q-88 37 -188 37t-188 -37q-88 -39 -154 -105q-66 -68 -102 -155q-39 -89 -39 -189zM725 608l74 357q6 29 28 28 q20 0 27 -28l61 -291l252 -51l37 -11q29 -2 29 -26q0 -23 -29 -31q-6 0 -55 -10l-299 -62q-14 -4 -27 -3q-24 0 -45 12q-31 16 -45 49q-11 20 -11 43q0 12 3 24z" />
<glyph unicode="t" horiz-adv-x="1632" d="M135 471l111 852l889 -106l-54 -410l430 -51l-110 -850l-889 104l51 410zM387 659l440 -53l56 422l-443 53zM762 197l442 -52l53 422l-202 25l-31 -227l-238 28z" />
<glyph unicode="u" d="M74 709q0 147 55 280t160 238q104 104 237 159t281 56q147 0 280 -56q133 -55 238 -159q104 -104 160 -238q55 -133 55 -280t-55 -279q-55 -133 -160 -240q-104 -104 -238 -159q-133 -55 -280 -56q-147 0 -281 56q-133 55 -237 159q-104 106 -160 240q-55 132 -55 279z M141 711q0 -135 52 -256q49 -121 143 -215t215 -144q121 -51 256 -51t256 49t215 146q94 94 145 215q49 121 50 256q0 135 -50 256q-51 121 -145 215q-94 96 -215 145t-256 49t-256 -49q-121 -51 -215 -145t-143 -215q-52 -121 -52 -256zM569 961v73q109 0 164 39 q55 37 72 121h76v-952h-117v719h-195z" />
<glyph unicode="v" d="M74 709q0 147 55 280t160 238q104 104 237 159t281 56q147 0 280 -56q133 -55 238 -159q104 -104 160 -238q55 -133 55 -280t-55 -279q-55 -133 -160 -240q-104 -104 -238 -159q-133 -55 -280 -56q-147 0 -281 56q-133 55 -237 159q-104 106 -160 240q-55 132 -55 279z M141 711q0 -135 52 -256q49 -121 143 -215t215 -144q121 -51 256 -51t256 49t215 146q94 94 145 215q49 121 50 256q0 135 -50 256q-51 121 -145 215q-94 96 -215 145t-256 49t-256 -49q-121 -51 -215 -145t-143 -215q-52 -121 -52 -256zM500 889q6 143 84 225q78 80 213 80 q137 0 225 -84q86 -84 86 -211q0 -190 -307 -393l-29 -19q-72 -47 -100 -77q-29 -31 -31 -62h451v-106h-586q0 102 45 180q45 76 145 141l29 19q254 170 254 321q0 84 -53 139q-53 53 -138 54q-82 0 -126 -58q-45 -57 -46 -161z" />
<glyph unicode="w" d="M74 709q0 145 55 278t160 240q104 102 237 159q133 55 281 56q147 0 280 -56q133 -57 238 -159q104 -106 160 -240q55 -133 55 -278q0 -150 -55 -281q-55 -133 -160 -238q-104 -106 -238 -159q-133 -55 -280 -56q-109 0 -211 33q-104 31 -197 90q-154 104 -239 264 q-86 161 -86 347zM141 711q0 -135 52 -256q49 -121 143 -215q94 -96 215 -146q121 -51 256 -51t256 51q121 49 215 146q94 94 145 215q49 121 50 256q0 98 -29 192q-29 92 -84 174q-94 141 -240 219q-145 78 -313 78q-135 0 -256 -49t-215 -143q-94 -96 -143 -217 q-52 -121 -52 -254zM512 512l119 16q2 -92 49 -139q47 -49 133 -49t133 45t47 127q0 90 -61 131t-195 41h-16v90h18q121 0 176 41q55 39 56 125q0 72 -43 113q-45 41 -121 41q-78 0 -119 -43q-43 -43 -45 -123l-117 10q8 117 84 186q76 70 197 70q129 0 209 -72t80 -182 q0 -74 -35 -121t-119 -82v-4q94 -41 137 -94q43 -55 43 -135q0 -121 -84 -199q-86 -78 -219 -78q-150 0 -227 74q-78 72 -80 211z" />
<glyph unicode="x" d="M74 709q0 147 55 280t160 238q104 104 237 159t281 56q147 0 280 -56q133 -55 238 -159q104 -104 160 -238q55 -133 55 -280t-55 -279q-55 -133 -160 -240q-104 -104 -238 -159q-133 -55 -280 -56q-147 0 -281 56q-133 55 -237 159q-104 106 -160 240q-55 132 -55 279z M141 711q0 -135 52 -256q49 -121 143 -215t215 -144q121 -51 256 -51t256 49t215 146q94 94 145 215q49 121 50 256q0 135 -50 256q-51 121 -145 215q-94 96 -215 145t-256 49t-256 -49q-121 -51 -215 -145t-143 -215q-52 -121 -52 -256zM408 477v111l428 606h110v-610h148 v-107h-148v-235h-110v235h-428zM518 584h318v444z" />
<glyph unicode="y" d="M74 709q0 147 55 280t160 238q104 104 237 159t281 56q147 0 280 -56q133 -55 238 -159q104 -104 160 -238q55 -133 55 -280t-55 -279q-55 -133 -160 -240q-104 -104 -238 -159q-133 -55 -280 -56q-147 0 -281 56q-133 55 -237 159q-104 106 -160 240q-55 132 -55 279z M141 711q0 -135 52 -256q49 -121 143 -215t215 -144q121 -51 256 -51t256 49t215 146q94 94 145 215q49 121 50 256q0 135 -50 256q-51 121 -145 215q-94 96 -215 145t-256 49t-256 -49q-121 -51 -215 -145t-143 -215q-52 -121 -52 -256zM524 481l111 19q8 -82 51 -123 q41 -43 115 -43q96 0 149 65q51 63 51 181q0 102 -47 159q-47 55 -133 56q-66 0 -110 -39q-47 -41 -72 -119h-92v545h508v-107h-404v-264q37 43 82 63t105 21q131 0 211 -86t79 -225q0 -158 -90 -256q-92 -98 -239 -99q-121 0 -193 68q-74 65 -82 184z" />
<glyph unicode="z" d="M74 709q0 147 55 280t160 238q104 104 237 159t281 56q147 0 280 -56q133 -55 238 -159q104 -104 160 -238q55 -133 55 -280t-55 -279q-55 -133 -160 -240q-104 -104 -238 -159q-133 -55 -280 -56q-147 0 -281 56q-133 55 -237 159q-104 106 -160 240q-55 132 -55 279z M141 711q0 -135 52 -256q49 -121 143 -215t215 -144q121 -51 256 -51t256 49t215 146q94 94 145 215q49 121 50 256q0 135 -50 256q-51 121 -145 215q-94 96 -215 145t-256 49t-256 -49q-121 -51 -215 -145t-143 -215q-52 -121 -52 -256zM477 700q0 238 90 367 q88 127 252 127q104 0 172 -57t88 -162l-106 -23q-14 72 -53 111q-41 37 -107 37q-102 0 -156 -94q-55 -96 -57 -281q43 66 98 98q53 31 123 31q123 0 201 -82t78 -213q0 -147 -84 -237q-84 -92 -219 -93q-160 0 -240 117q-80 116 -80 354zM610 553q0 -104 54 -164 q51 -61 141 -61q84 0 131 57q45 55 45 156q0 100 -45 157q-47 57 -129 58q-88 0 -141 -56q-56 -57 -56 -147z" />
<glyph unicode="{" d="M74 709q0 147 55 280t160 238q104 104 237 159t281 56q147 0 280 -56q133 -55 238 -159q104 -104 160 -238q55 -133 55 -280t-55 -279q-55 -133 -160 -240q-104 -104 -238 -159q-133 -55 -280 -56q-147 0 -281 56q-133 55 -237 159q-104 106 -160 240q-55 132 -55 279z M141 711q0 -135 52 -256q49 -121 143 -215t215 -144q121 -51 256 -51t256 49t215 146q94 94 145 215q49 121 50 256q0 135 -50 256q-51 121 -145 215q-94 96 -215 145t-256 49t-256 -49q-121 -51 -215 -145t-143 -215q-52 -121 -52 -256zM487 1067v115h613v-109 q-137 -188 -217 -395q-82 -209 -111 -436h-137q29 231 115 438q86 205 231 387h-494z" />
<glyph unicode="|" d="M74 709q0 147 55 280t160 238q104 104 237 159t281 56q147 0 280 -56q133 -55 238 -159q104 -104 160 -238q55 -133 55 -280t-55 -279q-55 -133 -160 -240q-104 -104 -238 -159q-133 -55 -280 -56q-147 0 -281 56q-133 55 -237 159q-104 106 -160 240q-55 132 -55 279z M141 711q0 -135 52 -256q49 -121 143 -215t215 -144q121 -51 256 -51t256 49t215 146q94 94 145 215q49 121 50 256q0 135 -50 256q-51 121 -145 215q-94 96 -215 145t-256 49t-256 -49q-121 -51 -215 -145t-143 -215q-52 -121 -52 -256zM500 504q0 84 41 141t127 96 q-70 31 -103 82t-33 127q0 106 78 176q76 68 197 68q123 0 199 -70q76 -72 75 -184q0 -70 -32 -117q-33 -49 -103 -82q86 -41 127 -98t41 -139q0 -125 -82 -199q-84 -76 -225 -76t-223 74q-84 74 -84 201zM623 500q0 -78 51 -125q49 -47 133 -47t135 47q49 47 49 125 q0 84 -51 137t-133 53t-133 -53t-51 -137zM647 940q0 -76 43 -117q41 -41 117 -41q78 0 119 41q41 39 41 115q0 78 -43 125q-43 45 -117 45t-117 -45q-43 -47 -43 -123z" />
<glyph unicode="}" d="M74 709q0 147 55 280t160 238q104 104 237 159t281 56q147 0 280 -56q133 -55 238 -159q104 -104 160 -238q55 -133 55 -280t-55 -279q-55 -133 -160 -240q-104 -104 -238 -159q-133 -55 -280 -56q-147 0 -281 56q-133 55 -237 159q-104 106 -160 240q-55 132 -55 279z M141 711q0 -135 52 -256q49 -121 143 -215t215 -144q121 -51 256 -51t256 49t215 146q94 94 145 215q49 121 50 256q0 135 -50 256q-51 121 -145 215q-94 96 -215 145t-256 49t-256 -49q-121 -51 -215 -145t-143 -215q-52 -121 -52 -256zM494 864q0 147 84 240q84 90 219 90 q160 0 239 -117q78 -117 78 -354q0 -238 -88 -365q-88 -129 -252 -129q-106 0 -172 58q-68 55 -88 162l107 22q14 -74 55 -111q39 -37 104 -36q102 0 158 96q53 94 55 278q-45 -66 -98 -96q-53 -33 -123 -33q-123 0 -201 82q-77 82 -77 213zM612 883q0 -100 47 -158 q45 -57 127 -57q86 0 142 57q55 55 55 145q0 104 -51 166q-53 59 -144 60q-84 0 -129 -56q-47 -57 -47 -157z" />
<glyph unicode="~" d="M74 709q0 147 55 280t160 238q104 104 237 159t281 56q147 0 280 -56q133 -55 238 -159q104 -104 160 -238q55 -133 55 -280t-55 -279q-55 -133 -160 -240q-104 -104 -238 -159q-133 -55 -280 -56q-147 0 -281 56q-133 55 -237 159q-104 106 -160 240q-55 132 -55 279z M141 711q0 -135 52 -256q49 -121 143 -215t215 -144q121 -51 256 -51t256 49t215 146q94 94 145 215q49 121 50 256q0 135 -50 256q-51 121 -145 215q-94 96 -215 145t-256 49t-256 -49q-121 -51 -215 -145t-143 -215q-52 -121 -52 -256zM315 961v73q78 4 127 43t70 117h70 v-952h-115v719h-152zM702 713q0 233 76 358q76 123 217 123q143 0 219 -123q74 -123 74 -358q0 -240 -74 -361q-74 -123 -219 -123t-219 121t-74 363zM821 713q0 -201 43 -299t131 -99q88 0 131 101q43 98 43 297q0 197 -43 297q-45 98 -131 98q-90 0 -131 -94 q-43 -96 -43 -301z" />
<glyph unicode="&#xaa;" horiz-adv-x="1781" d="M119 817l557 51l203 457l254 -457l505 -51l-403 -405l149 -506l-505 254l-457 -254l104 506z" />
<glyph unicode="&#xad;" horiz-adv-x="1705" d="M-195 -293l1995 2388l98 -82l-1994 -2390z" />
<glyph unicode="&#xb2;" horiz-adv-x="1705" d="M133 616q0 147 55 279q55 129 154 227q96 96 227 152q129 55 277 55h710v-713q0 -147 -55 -276t-151 -225q-98 -98 -228 -154q-129 -55 -276 -55t-277 55q-131 55 -227 154q-98 96 -154 225q-55 129 -55 276z" />
<glyph unicode="&#xb3;" horiz-adv-x="1705" d="M133 -94v712q0 147 55 277q55 129 154 227q96 96 225 152q129 55 277 55q147 0 278 -55q129 -55 228 -152q96 -98 151 -227t55 -277q0 -147 -55 -276q-55 -131 -151 -227q-98 -98 -228 -154q-131 -55 -278 -55h-711z" />
<glyph unicode="&#xb9;" horiz-adv-x="1689" d="M135 616q0 147 55 279q55 129 154 227q96 96 225 152q129 55 277 55q147 0 278 -55q129 -55 228 -152q96 -98 151 -227q55 -131 56 -279v-710h-713q-147 0 -277 55q-129 55 -225 154q-98 96 -154 225q-55 129 -55 276z" />
<glyph unicode="&#xba;" horiz-adv-x="1656" d="M133 -35v531q0 23 17 39q14 14 36 14h250q23 0 37 -14q14 -16 14 -39v-531q0 -23 -14 -37q-14 -16 -37 -16h-250q-23 0 -36 16q-17 14 -17 37zM647 -35v909q0 23 17 39q14 14 36 15h250q23 0 39 -15q14 -16 15 -39v-909q0 -23 -15 -37q-16 -16 -39 -16h-250q-23 0 -36 16 q-17 14 -17 37zM1163 -35v1305q0 23 17 39q14 14 37 14h249q23 0 39 -14q14 -16 15 -39v-1305q0 -23 -15 -37q-16 -16 -39 -16h-249q-23 0 -37 16q-17 14 -17 37z" />
<glyph unicode="&#xc3;" horiz-adv-x="2088" d="M305 2182q0 147 55 280t160 238q104 104 237 159t281 56q147 0 280 -56q133 -55 238 -159q104 -104 160 -238q55 -133 55 -280t-55 -279q-55 -133 -160 -240q-104 -104 -238 -159q-133 -55 -280 -56q-147 0 -281 56q-133 55 -237 159q-104 106 -160 240q-55 132 -55 279z M372 2184q0 -135 52 -256q49 -121 143 -215t215 -144q121 -51 256 -51t256 49t215 146q94 94 145 215q49 121 50 256q0 135 -50 256q-51 121 -145 215q-94 96 -215 145t-256 49t-256 -49q-121 -51 -215 -145t-143 -215q-52 -121 -52 -256zM546 2434v73q78 4 127 43t70 117 h70v-952h-115v719h-152zM933 2186q0 233 76 358q76 123 217 123q143 0 219 -123q74 -123 74 -358q0 -240 -74 -361q-74 -123 -219 -123t-219 121t-74 363zM1052 2186q0 -201 43 -299t131 -99q88 0 131 101q43 98 43 297q0 197 -43 297q-45 98 -131 98q-90 0 -131 -94 q-43 -96 -43 -301zM324 610q0 143 57 275q57 129 156 227q98 98 229 156q129 57 272 57q141 0 271 -57q127 -57 225 -156q96 -98 156 -227q57 -131 57 -275q0 -141 -57 -268q-59 -129 -156 -225q-98 -98 -225 -156q-129 -59 -271 -59q-143 0 -272 59q-131 57 -229 156 q-98 96 -156 225q-57 127 -57 268zM561 754l236 -234l-45 -336l286 193l330 -193l-96 336l284 234l-378 49l-140 334l-143 -334z" />
<glyph unicode="&#xd1;" horiz-adv-x="1732" d="M115 2182q0 147 55 280t160 238q104 104 237 159t281 56q147 0 280 -56q133 -55 238 -159q104 -104 160 -238q55 -133 55 -280t-55 -279q-55 -133 -160 -240q-104 -104 -238 -159q-133 -55 -280 -56q-147 0 -281 56q-133 55 -237 159q-104 106 -160 240q-55 132 -55 279z M182 2184q0 -135 52 -256q49 -121 143 -215t215 -144q121 -51 256 -51t256 49t215 146q94 94 145 215q49 121 50 256q0 135 -50 256q-51 121 -145 215q-94 96 -215 145t-256 49t-256 -49q-121 -51 -215 -145t-143 -215q-52 -121 -52 -256zM356 2434v73q78 4 127 43t70 117 h70v-952h-115v719h-152zM743 2186q0 233 76 358q76 123 217 123q143 0 219 -123q74 -123 74 -358q0 -240 -74 -361q-74 -123 -219 -123t-219 121t-74 363zM862 2186q0 -201 43 -299t131 -99q88 0 131 101q43 98 43 297q0 197 -43 297q-45 98 -131 98q-90 0 -131 -94 q-43 -96 -43 -301zM137 608q0 143 60 273q57 129 155 227q96 98 226 156q129 57 270 57q143 0 272 -57t228 -156q98 -98 155 -227t58 -273q0 -141 -58 -270q-57 -129 -155 -225q-98 -98 -228 -156q-129 -59 -272 -59q-141 0 -270 59q-129 57 -226 156q-98 96 -155 225 q-60 129 -60 270zM565 801q0 -18 6 -35q6 -18 17 -33q10 -16 24 -28q12 -14 23 -31l16 -31q6 -16 6 -35v-473q0 -18 9 -26q6 -10 16 -15q10 -6 27 -6q35 0 41 6t6 41v473q0 18 6 35q6 16 16 31q8 16 23 31q35 0 41 30q6 29 6 66v282h-47v-235h-45v235h-47v-235h-52v235h-45z M848 279q0 -37 10 -70q8 -35 27 -62q18 -27 45 -43t61 -16q37 0 64 16t45 43q16 27 24 62q8 33 9 70q0 51 -7 81q-8 29 -16 48l-14 30q-8 12 -9 31q-35 0 -40 29q-6 29 -7 63v477q0 16 -6 27q-8 8 -18 12q-10 6 -25 6q-35 0 -41 -4q-6 -6 -6 -41v-477q0 -16 -6 -33 q-8 -18 -18 -30q-10 -16 -23 -29q0 -18 -8 -31l-17 -30q-10 -18 -16 -48q-8 -30 -8 -81z" />
<glyph unicode="&#xd5;" horiz-adv-x="1773" d="M158 2182q0 147 55 280t160 238q104 104 237 159t281 56q147 0 280 -56q133 -55 238 -159q104 -104 160 -238q55 -133 55 -280t-55 -279q-55 -133 -160 -240q-104 -104 -238 -159q-133 -55 -280 -56q-147 0 -281 56q-133 55 -237 159q-104 106 -160 240q-55 132 -55 279z M225 2184q0 -135 52 -256q49 -121 143 -215t215 -144q121 -51 256 -51t256 49t215 146q94 94 145 215q49 121 50 256q0 135 -50 256q-51 121 -145 215q-94 96 -215 145t-256 49t-256 -49q-121 -51 -215 -145t-143 -215q-52 -121 -52 -256zM399 2434v73q78 4 127 43t70 117 h70v-952h-115v719h-152zM786 2186q0 233 76 358q76 123 217 123q143 0 219 -123q74 -123 74 -358q0 -240 -74 -361q-74 -123 -219 -123t-219 121t-74 363zM905 2186q0 -201 43 -299t131 -99q88 0 131 101q43 98 43 297q0 197 -43 297q-45 98 -131 98q-90 0 -131 -94 q-43 -96 -43 -301zM184 618q0 145 56 275q55 129 151 225t225 152q129 55 275 55q145 0 274 -55t226 -152q96 -96 151 -225t55 -275q0 -145 -55 -274t-151 -225t-226 -152q-129 -55 -274 -55t-275 55q-129 55 -225 152q-96 96 -151 225q-56 129 -56 274zM477 274 q0 -14 10 -22q8 -10 21 -10h143q27 0 27 32v299q0 31 -27 31h-143q-12 0 -21 -8q-10 -8 -10 -23v-299zM770 274q0 -33 29 -32h143q12 0 23 10q8 8 8 22v514q0 12 -8 21q-10 6 -23 6h-143q-29 0 -29 -27v-514zM1061 274q0 -14 8 -22q8 -10 18 -10h144q33 0 33 32v736 q0 33 -33 32h-144q-10 0 -18 -8q-8 -10 -8 -24v-736z" />
<glyph unicode="&#xe3;" horiz-adv-x="1781" d="M146 2182q0 147 55 280t160 238q104 104 237 159t281 56q147 0 280 -56q133 -55 238 -159q104 -104 160 -238q55 -133 55 -280t-55 -279q-55 -133 -160 -240q-104 -104 -238 -159q-133 -55 -280 -56q-147 0 -281 56q-133 55 -237 159q-104 106 -160 240q-55 132 -55 279z M213 2184q0 -135 52 -256q49 -121 143 -215t215 -144q121 -51 256 -51t256 49t215 146q94 94 145 215q49 121 50 256q0 135 -50 256q-51 121 -145 215q-94 96 -215 145t-256 49t-256 -49q-121 -51 -215 -145t-143 -215q-52 -121 -52 -256zM387 2434v73q78 4 127 43t70 117 h70v-952h-115v719h-152zM774 2186q0 233 76 358q76 123 217 123q143 0 219 -123q74 -123 74 -358q0 -240 -74 -361q-74 -123 -219 -123t-219 121t-74 363zM893 2186q0 -201 43 -299t131 -99q88 0 131 101q43 98 43 297q0 197 -43 297q-45 98 -131 98q-90 0 -131 -94 q-43 -96 -43 -301zM119 817l557 51l203 457l254 -457l505 -51l-403 -405l149 -506l-505 254l-457 -254l104 506z" />
<glyph unicode="&#xf1;" horiz-adv-x="1325" d="M-86 2179q0 147 55 280t160 238q104 104 237 159t281 56q147 0 280 -56q133 -55 238 -159q104 -104 160 -238q55 -133 55 -280t-55 -279q-55 -133 -160 -240q-104 -104 -238 -159q-133 -55 -280 -56q-147 0 -281 56q-133 55 -237 159q-104 106 -160 240q-55 132 -55 279z M-19 2181q0 -135 52 -256q49 -121 143 -215t215 -144q121 -51 256 -51t256 49t215 146q94 94 145 215q49 121 50 256q0 135 -50 256q-51 121 -145 215q-94 96 -215 145t-256 49t-256 -49q-121 -51 -215 -145t-143 -215q-52 -121 -52 -256zM155 2431v73q78 4 127 43t70 117 h70v-952h-115v719h-152zM542 2183q0 233 76 358q76 123 217 123q143 0 219 -123q74 -123 74 -358q0 -240 -74 -361q-74 -123 -219 -123t-219 121t-74 363zM661 2183q0 -201 43 -299t131 -99q88 0 131 101q43 98 43 297q0 197 -43 297q-45 98 -131 98q-90 0 -131 -94 q-43 -96 -43 -301zM164 920l14 387h74v-320q0 -12 10 -20q10 -10 21 -11q10 0 20 11q10 8 10 20v320h78v-320q0 -12 10 -20q8 -10 21 -11q12 0 22 11q8 8 9 20v320h71l17 -387q0 -53 -15 -99q-16 -45 -57 -61q-16 -8 -27 -25q-10 -14 -16 -39q-8 -25 -8 -65l10 -649 q0 -31 -22 -52q-25 -20 -56 -20t-51 20q-23 20 -23 52l13 649q0 41 -8 65q-8 25 -19 39q-12 16 -26 25q-43 16 -58 61q-14 46 -14 99zM721 1038q0 57 14 111q12 51 39 90q25 39 64 61q39 23 90 23q49 0 86 -23t63 -61q25 -39 39 -90q12 -53 12 -111q0 -66 -10 -108 q-12 -45 -26 -74q-16 -29 -31 -45q-16 -16 -25 -27q-6 -10 -14 -20t-14 -27q-8 -16 -13 -41q-6 -25 -6 -65l10 -649q0 -31 -20 -52q-23 -20 -51 -20q-33 0 -56 20t-22 52l10 649q0 41 -4 65q-4 25 -10 41q-8 16 -17 27l-16 20q-8 12 -22 29q-16 16 -31 45q-16 29 -27 72 q-12 42 -12 108z" />
<glyph unicode="&#xf5;" horiz-adv-x="1656" d="M609 2179q0 147 55 280t160 238q104 104 237 159t281 56q147 0 280 -56q133 -55 238 -159q104 -104 160 -238q55 -133 55 -280t-55 -279q-55 -133 -160 -240q-104 -104 -238 -159q-133 -55 -280 -56q-147 0 -281 56q-133 55 -237 159q-104 106 -160 240q-55 132 -55 279z M676 2181q0 -135 52 -256q49 -121 143 -215t215 -144q121 -51 256 -51t256 49t215 146q94 94 145 215q49 121 50 256q0 135 -50 256q-51 121 -145 215q-94 96 -215 145t-256 49t-256 -49q-121 -51 -215 -145t-143 -215q-52 -121 -52 -256zM850 2431v73q78 4 127 43t70 117 h70v-952h-115v719h-152zM1237 2183q0 233 76 358q76 123 217 123q143 0 219 -123q74 -123 74 -358q0 -240 -74 -361q-74 -123 -219 -123t-219 121t-74 363zM1356 2183q0 -201 43 -299t131 -99q88 0 131 101q43 98 43 297q0 197 -43 297q-45 98 -131 98q-90 0 -131 -94 q-43 -96 -43 -301zM133 -35v531q0 23 17 39q14 14 36 14h250q23 0 37 -14q14 -16 14 -39v-531q0 -23 -14 -37q-14 -16 -37 -16h-250q-23 0 -36 16q-17 14 -17 37zM647 -35v909q0 23 17 39q14 14 36 15h250q23 0 39 -15q14 -16 15 -39v-909q0 -23 -15 -37q-16 -16 -39 -16 h-250q-23 0 -36 16q-17 14 -17 37zM1163 -35v1305q0 23 17 39q14 14 37 14h249q23 0 39 -14q14 -16 15 -39v-1305q0 -23 -15 -37q-16 -16 -39 -16h-249q-23 0 -37 16q-17 14 -17 37z" />
<glyph unicode="&#x152;" horiz-adv-x="3489" d="M1919 614q0 141 58 271q57 129 155 227q96 96 226 154q127 57 268 57t270 -57t228 -154q96 -98 153 -227t58 -271q0 -141 -50 -268q-51 -129 -139 -225q-90 -98 -211 -156q-123 -57 -264 -57l379 612l-424 234q-35 0 -64 -6q-31 -6 -30 -39l-283 -422v-94h49q12 0 23 6 q8 4 16 14q6 8 6 25l142 282h47q18 0 28 -6q10 -8 15 -16q6 -10 6 -23l-191 -282q0 -37 -28 -43q-29 -6 -64 -7h-49q-16 0 -24 9q-10 8 -15 22q-4 12 -4 31q-2 16 -2 33q-18 0 -20 8t2 22l12 31q6 16 6 33l281 422l47 51l-189 94l-376 -567q0 35 -7 71l-16 70q-10 35 -16 72 q-9 34 -9 69zM184 618q0 145 56 275q55 129 151 225t225 152q129 55 275 55q145 0 274 -55t226 -152q96 -96 151 -225t55 -275q0 -145 -55 -274t-151 -225t-226 -152q-129 -55 -274 -55t-275 55q-129 55 -225 152q-96 96 -151 225q-56 129 -56 274zM477 274q0 -14 10 -22 q8 -10 21 -10h143q27 0 27 32v299q0 31 -27 31h-143q-12 0 -21 -8q-10 -8 -10 -23v-299zM770 274q0 -33 29 -32h143q12 0 23 10q8 8 8 22v514q0 12 -8 21q-10 6 -23 6h-143q-29 0 -29 -27v-514zM1061 274q0 -14 8 -22q8 -10 18 -10h144q33 0 33 32v736q0 33 -33 32h-144 q-10 0 -18 -8q-8 -10 -8 -24v-736z" />
<glyph unicode="&#x153;" horiz-adv-x="3354" d="M1837 377l565 944l234 -139q-16 0 -27 -8l-18 -17q-8 -10 -19 -16q-10 -8 -28 -8l-330 -519v-92q0 -18 8 -28q6 -10 17 -19l16 -20q8 -10 8 -27h94q16 0 33 6q16 6 31 17q16 8 31 22l184 330q18 0 20 6t-2 16q-6 10 -18 25h-45l-189 -328h-94v45l328 520q0 33 31 39t65 7 l471 -283l-612 -942zM133 -35v531q0 23 17 39q14 14 36 14h250q23 0 37 -14q14 -16 14 -39v-531q0 -23 -14 -37q-14 -16 -37 -16h-250q-23 0 -36 16q-17 14 -17 37zM647 -35v909q0 23 17 39q14 14 36 15h250q23 0 39 -15q14 -16 15 -39v-909q0 -23 -15 -37q-16 -16 -39 -16 h-250q-23 0 -36 16q-17 14 -17 37zM1163 -35v1305q0 23 17 39q14 14 37 14h249q23 0 39 -14q14 -16 15 -39v-1305q0 -23 -15 -37q-16 -16 -39 -16h-249q-23 0 -37 16q-17 14 -17 37z" />
<glyph unicode="&#x2000;" horiz-adv-x="1456" />
<glyph unicode="&#x2001;" horiz-adv-x="2914" />
<glyph unicode="&#x2002;" horiz-adv-x="1456" />
<glyph unicode="&#x2003;" horiz-adv-x="2914" />
<glyph unicode="&#x2004;" horiz-adv-x="970" />
<glyph unicode="&#x2005;" horiz-adv-x="727" />
<glyph unicode="&#x2006;" horiz-adv-x="485" />
<glyph unicode="&#x2007;" horiz-adv-x="485" />
<glyph unicode="&#x2008;" horiz-adv-x="362" />
<glyph unicode="&#x2009;" horiz-adv-x="581" />
<glyph unicode="&#x200a;" horiz-adv-x="161" />
<glyph unicode="&#x2010;" horiz-adv-x="1705" d="M-195 -293l1995 2388l98 -82l-1994 -2390z" />
<glyph unicode="&#x2011;" horiz-adv-x="1705" d="M-195 -293l1995 2388l98 -82l-1994 -2390z" />
<glyph unicode="&#x2012;" horiz-adv-x="1705" d="M-195 -293l1995 2388l98 -82l-1994 -2390z" />
<glyph unicode="&#x2013;" horiz-adv-x="1024" d="M-195 -377v2472h1412v-2472h-1412z" />
<glyph unicode="&#x2014;" horiz-adv-x="2048" d="M-195 -377v2472h2436v-2472h-2436z" />
<glyph unicode="&#x202f;" horiz-adv-x="581" />
<glyph unicode="&#x205f;" horiz-adv-x="727" />
<glyph unicode="&#x2122;" horiz-adv-x="3422" d="M1827 612q0 141 59 271q57 127 156 225q96 98 225 156q129 57 271 57q141 0 270 -57q127 -57 225 -156q98 -98 156 -225q57 -129 57 -271q0 -141 -57 -270t-156 -225q-98 -98 -225 -156q-129 -59 -270 -59t-271 59q-129 57 -225 156q-98 96 -156 225q-59 129 -59 270z M2251 471h192l283 -283v848l-283 -233h-192v-332zM199 696q16 133 88 246q70 113 174 193t233 118q88 26 179 26q40 0 81 -5q135 -16 248 -80q113 -63 193 -164q78 -100 116 -229q26 -91 26 -191q0 -44 -5 -90q-16 -135 -80 -248q-63 -113 -164 -192q-100 -80 -229 -117 q-92 -27 -194 -27q-43 0 -87 5q-133 16 -246 88q-115 70 -192 174q-80 104 -119 233q-27 89 -27 182q0 39 5 78zM469 520h264l-45 -268l533 -45l47 489l-226 45v222l-487 88zM643 651v223h266l-41 -268zM868 385v90h131v131h134l-46 -264z" />
<glyph unicode="&#xe000;" horiz-adv-x="1440" d="M0 1440h1440v-1440h-1440v1440z" />
<glyph unicode="&#xfb01;" horiz-adv-x="3497" d="M1849 616l176 185l-36 250l249 43l125 229l228 -119l229 119l125 -229l250 -43l-39 -250l178 -185l-178 -182l39 -258l-250 -43l-125 -229l-229 119l-228 -119l-125 229l-249 43l36 258zM2159 559q0 -66 36 -125v12q0 88 29 168q31 84 88 154q57 68 137 115q78 45 172 59 q31 4 63 4q55 0 107 -12q82 -20 154 -60q-72 94 -180 144q-81 37 -171 37q-30 0 -61 -4q-92 -10 -166 -54q-76 -45 -126 -112q-51 -68 -74 -152q-14 -51 -14 -105q0 -34 6 -69zM184 639v420l262 262h418l735 -733l-681 -682zM352 1008q0 -66 41 -107q40 -39 79.5 -39 t78.5 39q41 41 41 107q0 63 -41 104q-39 40 -78.5 40t-79.5 -40q-41 -41 -41 -104z" />
<glyph unicode="&#xfb02;" horiz-adv-x="3655" d="M2007 567l238 244l284 -287l709 715l240 -238l-949 -952zM184 639v420l262 262h418l735 -733l-681 -682zM352 1008q0 -66 41 -107q40 -39 79.5 -39t78.5 39q41 41 41 107q0 63 -41 104q-39 40 -78.5 40t-79.5 -40q-41 -41 -41 -104z" />
<glyph unicode="&#xfb03;" horiz-adv-x="5246" d="M3598 616l176 185l-36 250l249 43l125 229l228 -119l229 119l125 -229l250 -43l-39 -250l178 -185l-178 -182l39 -258l-250 -43l-125 -229l-229 119l-228 -119l-125 229l-249 43l36 258zM3908 559q0 -66 36 -125v12q0 88 29 168q31 84 88 154q57 68 137 115q78 45 172 59 q31 4 63 4q55 0 107 -12q82 -20 154 -60q-72 94 -180 144q-81 37 -171 37q-30 0 -61 -4q-92 -10 -166 -54q-76 -45 -126 -112q-51 -68 -74 -152q-14 -51 -14 -105q0 -34 6 -69zM1933 639v420l262 262h418l735 -733l-681 -682zM2101 1008q0 -66 41 -107q40 -39 79.5 -39 t78.5 39q41 41 41 107q0 63 -41 104q-39 40 -78.5 40t-79.5 -40q-41 -41 -41 -104zM184 639v420l262 262h418l735 -733l-681 -682zM352 1008q0 -66 41 -107q40 -39 79.5 -39t78.5 39q41 41 41 107q0 63 -41 104q-39 40 -78.5 40t-79.5 -40q-41 -41 -41 -104z" />
<glyph unicode="&#xfb04;" horiz-adv-x="5404" d="M3756 567l238 244l284 -287l709 715l240 -238l-949 -952zM1933 639v420l262 262h418l735 -733l-681 -682zM2101 1008q0 -66 41 -107q40 -39 79.5 -39t78.5 39q41 41 41 107q0 63 -41 104q-39 40 -78.5 40t-79.5 -40q-41 -41 -41 -104zM184 639v420l262 262h418l735 -733 l-681 -682zM352 1008q0 -66 41 -107q40 -39 79.5 -39t78.5 39q41 41 41 107q0 63 -41 104q-39 40 -78.5 40t-79.5 -40q-41 -41 -41 -104z" />
</font>
</defs>
</svg>
