<?xml version="1.0" standalone="no"?>
<!DOCTYPE svg PUBLIC "-//W3C//DTD SVG 1.1//EN" "http://www.w3.org/Graphics/SVG/1.1/DTD/svg11.dtd" >
<svg xmlns="http://www.w3.org/2000/svg">
<metadata>
This is a custom SVG webfont generated by Font Squirrel.
Copyright   : Typeface  your company 2012 All Rights Reserved
</metadata>
<defs>
<font id="TestFontRegular" horiz-adv-x="2048" >
<font-face units-per-em="2048" ascent="1638" descent="-410" />
<missing-glyph horiz-adv-x="500" />
<glyph unicode="!" horiz-adv-x="1551" d="M0 685q0 95 24.5 182.5t69 163.5t107 138.5t139 107t163.5 69t182 24.5q94 0 181.5 -24.5t164 -69t139 -107t107 -138.5t69 -163.5t24.5 -182.5q0 -142 -54 -266.5t-147 -217.5t-217.5 -147t-266.5 -54t-266.5 54t-217.5 147t-147 217.5t-54 266.5zM344 686h255v-344h171 v344h257l-342 341z" />
<glyph unicode="&#x22;" horiz-adv-x="1551" d="M0 686q0 142 54 267t147 218t218 147t267 54t267 -54t218 -147t147 -218t54 -267t-54 -267t-147 -218t-218 -147t-267 -54t-267 54t-218 147t-147 218t-54 267zM343 600h344v-257l342 343l-342 342v-256h-344v-172z" />
<glyph unicode="#" horiz-adv-x="1551" d="M0 686q0 142 54 267t147 218t218 147t267 54t267 -54t218 -147t147 -218t54 -267t-54 -267t-147 -218t-218 -147t-267 -54t-267 54t-218 147t-147 218t-54 267zM343 685l343 -342l342 342h-256v344h-172v-344h-257z" />
<glyph unicode="$" horiz-adv-x="1542" d="M0 514v342h514v514h342v-514h514v-342h-514v-514h-342v514h-514z" />
<glyph unicode="%" horiz-adv-x="1586" d="M0 560v343h1372v-343h-1372z" />
<glyph unicode="&#x26;" horiz-adv-x="1537" d="M0 685l685 685l685 -685l-242 -242l-272 271v-714h-342v714l-100 -100l-87 -86l-85 -85z" />
<glyph unicode="'" horiz-adv-x="1537" d="M0 514v344h714l-99 100l-86 86l-85 85l243 243l685 -686l-685 -686l-243 243l270 271h-714z" />
<glyph unicode="(" horiz-adv-x="1537" d="M0 686l243 243l271 -271v714h344v-714l186 186l85 85l243 -243l-686 -686z" />
<glyph unicode=")" horiz-adv-x="1561" d="M0 685l684 685l242 -242l-270 -272h714v-344h-714l185 -185l85 -85l-242 -242z" />
<glyph unicode="*" horiz-adv-x="1586" d="M0 686v171h86v429q0 18 7 33.5t18.5 27.5t27 18.5t33.5 6.5q36 0 61 -25t25 -61v-429h85v-171h-85v-600q0 -36 -25 -61t-61 -25q-18 0 -33.5 6.5t-27 18.5t-18.5 27.5t-7 33.5v600h-86zM515 343v171h86v772q0 36 25 61t61 25q35 0 60 -25t25 -61v-772h86v-171h-86v-257 q0 -36 -25 -61t-60 -25q-36 0 -61 25t-25 61v257h-86zM1030 857v172h85v257q0 18 7 33.5t18.5 27.5t27 18.5t33.5 6.5q36 0 61 -25t25 -61v-257h86v-172h-86v-771q0 -36 -25 -61t-61 -25q-18 0 -33.5 6.5t-27 18.5t-18.5 27.5t-7 33.5v771h-85z" />
<glyph unicode="+" horiz-adv-x="1551" d="M0 686q0 142 54 267t147 218t218 147t267 54t267 -54t218 -147t147 -218t54 -267t-54 -267t-147 -218t-218 -147t-267 -54t-267 54t-218 147t-147 218t-54 267zM343 600h257v-257h172v257h257v172h-257v257h-172v-257h-257v-172z" />
<glyph unicode="," horiz-adv-x="1591" d="M0 1029v172h340v171h171v-171h343v171h172v-171h347v-172h-347h-172h-343h-171h-340zM172 0v171h1029l-171 -171h-858zM172 343v171h1029v-171h-1029zM172 686v172h1029v-172h-1029z" />
<glyph unicode="-" horiz-adv-x="1571" d="M0 514v342h203q4 13 9 25t11 25l-144 142l243 243l142 -144q13 6 25 9l25 8v206h342v-206l25 -8q12 -3 25 -9l142 144l243 -243l-143 -142l10 -25q5 -12 9 -25h203v-342h-203q-4 -13 -9 -25l-10 -25l143 -142l-243 -243l-142 143q-13 -5 -25 -8l-25 -8v-206h-342v206 l-25 8q-12 3 -25 8l-142 -143l-243 243l144 142q-6 13 -11 25t-9 25h-203zM514 681q0 -36 13.5 -67t36.5 -54t54 -36.5t67 -13.5t67 13.5t54 36.5t36.5 54t13.5 67q0 35 -13.5 66t-36.5 54.5t-54 37t-67 13.5t-67 -13.5t-54 -37t-36.5 -54.5t-13.5 -66z" />
<glyph unicode="." horiz-adv-x="1551" d="M0 686q0 142 54 267t147 218t218 147t267 54t267 -54t218 -147t147 -218t54 -267t-54 -267t-147 -218t-218 -147t-267 -54t-267 54t-218 147t-147 218t-54 267zM347 468l121 -122l218 219l218 -219l121 122l-218 218l218 218l-121 121l-218 -218l-218 218l-121 -121 l218 -218z" />
<glyph unicode="/" horiz-adv-x="1551" d="M0 686q0 142 54 267t147 218.5t218 147.5t267 54t267 -54t218 -147.5t147 -218.5t54 -267q0 -95 -24.5 -182.5t-69 -163.5t-107 -138.5t-139 -107.5t-164 -69.5t-182.5 -24.5t-182.5 24.5t-164 69.5t-139 107.5t-107 138.5t-69 163.5t-24.5 182.5zM264 686l316 -316 l533 534l-121 121l-412 -413l-195 195z" />
<glyph unicode="0" horiz-adv-x="1360" d="M0 685q0 82 21.5 158.5t60.5 143.5t94 121.5t121.5 93.5t143 60.5t159.5 21.5v86l171 -171l-171 -172v85q-89 0 -167 -33.5t-136 -91.5t-92 -136t-34 -166q0 -87 32.5 -164.5t93.5 -138.5l-120 -122q-86 86 -131.5 195t-45.5 230zM429 171l171 171v-86q88 0 166 34 t136 92t91.5 136t33.5 167q0 87 -31.5 164.5t-92.5 138.5l120 122q86 -86 131 -195t45 -230q0 -83 -21.5 -159.5t-60.5 -143t-93.5 -121.5t-121.5 -94t-143.5 -60.5t-158.5 -21.5v-85z" />
<glyph unicode="1" horiz-adv-x="1551" d="M0 686q0 142 54 267t147 218.5t218 147.5t267 54t267 -54t218 -147.5t147 -218.5t54 -267q0 -95 -24.5 -182.5t-69 -163.5t-107 -138.5t-139 -107.5t-164 -69.5t-182.5 -24.5t-182.5 24.5t-164 69.5t-139 107.5t-107 138.5t-69 163.5t-24.5 182.5zM343 686l342 -341v256 h344v171h-344v258z" />
<glyph unicode="2" horiz-adv-x="1551" d="M0 685q0 142 54 266.5t147 217.5t217.5 147t266.5 54t266.5 -54t217.5 -147t147 -217.5t54 -266.5t-54 -266.5t-147 -217.5t-217.5 -147t-266.5 -54t-266.5 54t-217.5 147t-147 217.5t-54 266.5zM342 599h685v171h-685v-171z" />
<glyph unicode="3" horiz-adv-x="1674" d="M0 0v1201h172v-1029h1029v1029h172v-1201h-1373zM258 343v172h171v-172h-171zM258 686v172h171v-172h-171zM343 1115v172q0 18 7 33.5t18.5 27t27 18t33.5 6.5q36 0 61 -25t25 -60v-172q0 -18 -6.5 -33.5t-18.5 -27t-27.5 -18.5t-33.5 -7t-33.5 7t-27 18.5t-18.5 27 t-7 33.5zM601 343v172h171v-172h-171zM601 686v172h171v-172h-171zM858 1115v172q0 35 25 60t61 25q18 0 33.5 -6.5t27 -18t18.5 -27t7 -33.5v-172q0 -18 -7 -33.5t-18.5 -27t-27 -18.5t-33.5 -7t-33.5 7t-27.5 18.5t-18.5 27t-6.5 33.5zM944 343v172h171zM944 686v172h171 v-172h-171z" />
<glyph unicode="4" horiz-adv-x="1532" d="M0 282l392 392q-17 44 -28 91t-11 98q0 105 40 197.5t109.5 161t162 108.5t197.5 40t197.5 -40t161.5 -108.5t109 -161t40 -197.5t-40 -197.5t-109 -161.5t-161.5 -109t-197.5 -40q-51 0 -97.5 10t-91.5 27l-392 -392zM525 863q0 -70 26.5 -131.5t72.5 -107t107.5 -72 t130.5 -26.5q70 0 131 26.5t107 72t72.5 107t26.5 131.5q0 69 -26.5 130.5t-72.5 107.5t-107 72.5t-131 26.5q-69 0 -130.5 -26.5t-107.5 -72.5t-72.5 -107.5t-26.5 -130.5z" />
<glyph unicode="5" horiz-adv-x="859" d="M0 0h686v172h-86q-18 0 -33.5 6.5t-27 18.5t-18.5 27.5t-7 33.5v600h-514v-172h85q36 0 61 -25t25 -60v-343q0 -36 -25 -61t-61 -25h-85v-172zM171 1201q0 36 13.5 67t37 54.5t54.5 37t67 13.5q35 0 66 -13.5t54.5 -37t37 -54.5t13.5 -67t-13.5 -67t-37 -54.5t-54.5 -37 t-66 -13.5q-36 0 -67 13.5t-54.5 37t-37 54.5t-13.5 67z" />
<glyph unicode="6" horiz-adv-x="1556" d="M0 599v171l201 86l10 26q5 13 11 25l-84 201l122 121l203 -81l25 10q12 5 24 9l85 203h172l87 -203l24 -9q12 -5 23 -11l204 85l122 -122l-84 -206q7 -11 11 -22l8 -24l206 -85v-172l-206 -87q-4 -13 -8 -24.5t-9 -22.5l83 -204l-120 -122l-206 82q-11 -5 -23 -10l-25 -9 l-85 -204h-171l-86 203q-24 7 -50 20l-202 -83l-121 120l81 203q-12 25 -21 51zM426 685q0 -53 20 -99.5t55 -81.5t82 -55t101 -20q53 0 99.5 20t81.5 55t55 81.5t20 99.5t-20 100t-55 82t-81.5 55.5t-99.5 20.5q-54 0 -101 -20.5t-82 -55.5t-55 -82t-20 -100z" />
<glyph unicode="7" horiz-adv-x="1473" d="M0 325l360 360l-360 360l240 240l360 -360l360 360l240 -240l-361 -360l361 -360l-240 -240l-360 360l-360 -360z" />
<glyph unicode="8" horiz-adv-x="1560" d="M0 672l244 245l268 -268l616 616l244 -245l-860 -860z" />
<glyph unicode="9" horiz-adv-x="1551" d="M0 685q0 142 54 266.5t147 217.5t217.5 147t266.5 54l85 -86l-85 -85q-107 0 -200.5 -40.5t-163 -110t-110 -163.5t-40.5 -200q0 -103 39 -197t112 -166l-106 -14l-16 -108q-97 98 -148.5 222t-51.5 263zM599 85l86 86q106 0 200 40.5t163.5 110t110 163t40.5 200.5 q0 103 -39 196.5t-112 166.5l106 14l15 108q98 -98 149.5 -223t51.5 -262q0 -142 -54 -266.5t-147 -217.5t-217.5 -147t-266.5 -54z" />
<glyph unicode=":" horiz-adv-x="1586" d="M0 560v343h1372v-343h-1372z" />
<glyph unicode=";" horiz-adv-x="1556" d="M0 685q0 119 38.5 224.5t105.5 193.5q11 -8 23.5 -13.5t27.5 -5.5q18 0 33.5 6.5t27 18.5t18.5 27.5t7 33.5q0 14 -5.5 27t-13.5 24q72 57 157.5 93.5t180.5 48.5q3 -33 27 -55.5t58 -22.5q33 0 56.5 22.5t27.5 54.5q95 -11 179.5 -47t155.5 -92q-9 -10 -14.5 -23.5 t-5.5 -29.5q0 -36 25 -61t60 -25q15 0 28.5 5.5t24.5 14.5q69 -87 108.5 -193t39.5 -226q0 -142 -54 -266.5t-147 -217.5t-217.5 -147t-266.5 -54t-266.5 54t-217.5 147t-147 217.5t-54 266.5zM342 685q0 -71 27 -133.5t73.5 -109t109 -73.5t133.5 -27t133 27t108.5 73.5 t73.5 109t27 133.5q0 72 -26.5 134t-74.5 108l-241 243l-242 -243q-47 -46 -74 -108t-27 -134zM514 685q0 36 13.5 67t36.5 54t54 36.5t67 13.5t67 -13.5t54 -36.5t36.5 -54t13.5 -67t-13.5 -67t-36.5 -54t-54 -36.5t-67 -13.5t-67 13.5t-54 36.5t-36.5 54t-13.5 67z" />
<glyph unicode="&#x3c;" horiz-adv-x="1537" d="M0 685l685 685l685 -685l-242 -242l-272 271v-714h-342v714l-100 -100l-87 -86l-85 -85z" />
<glyph unicode="&#x3e;" horiz-adv-x="1757" d="M104 657l113 328h200q37 47 90.5 84t110.5 66l64 188h350l51 -188q65 -29 114.5 -66t86.5 -84h200l113 -328l-164 -112q-10 -66 -27.5 -128.5t-46.5 -109.5l62 -190l-289 -213l-164 127q-28 -11 -55 -12t-55 -1q-39 0 -68 1t-57 12l-164 -127l-289 213l64 190 q-29 47 -47.5 109.5t-28.5 128.5zM581 596q0 -51 21.5 -99t59.5 -85t88 -58.5t108 -21.5q51 0 98 21.5t84 58.5t58.5 85t21.5 99q0 55 -21.5 105.5t-58.5 88t-84 59t-98 21.5q-58 0 -108 -21.5t-88 -59t-59.5 -88t-21.5 -105.5z" />
<glyph unicode="?" horiz-adv-x="1665" d="M174 424l125 94q-8 23 -9 46.5t-1 47.5q0 23 1 44.5t9 37.5l-125 105q23 88 69 164.5t107 138.5l148 -53q30 32 69 50.5t86 35.5l21 155q47 17 89 24t89 7q96 0 176 -31l23 -155q47 -17 85.5 -35.5t69.5 -50.5l146 53q129 -125 178 -303l-115 -105v-82v-94l115 -94 q-25 -86 -70 -168t-108 -145l-146 63q-63 -63 -155 -94l-23 -156q-41 -8 -85 -15t-91 -7t-89 7t-89 15l-21 156q-92 31 -155 94l-148 -63q-61 63 -107 145t-69 168zM559 612q0 -63 23.5 -116.5t64.5 -92t93 -61.5t112 -23q61 0 114.5 23t92.5 61.5t61.5 92t22.5 116.5 q0 60 -22.5 112t-61.5 92t-92.5 63.5t-114.5 23.5q-60 0 -112 -23.5t-93 -63.5t-64.5 -92t-23.5 -112z" />
<glyph unicode="@" horiz-adv-x="1906" d="M258 567l238 244l284 -287l709 715l239 -238l-948 -952z" />
<glyph unicode="A" horiz-adv-x="1624" d="M61 147q0 41 21 74l604 1045q40 73 125 73h2q84 0 127 -73l604 -1045q18 -33 19 -74q0 -63 -43 -105t-105 -42h-1204q-61 0 -105.5 43t-44.5 104zM692 266q0 -51 36 -86t87 -35t87 35t36 86q0 53 -36 89t-87 36q-53 0 -88 -36t-35 -89zM705 506h219v489h-219v-489z" />
<glyph unicode="B" horiz-adv-x="1699" d="M184 555l201 203l322 -320l688 750l223 -203l-877 -983z" />
<glyph unicode="C" horiz-adv-x="1724" d="M57 981l11 16q115 -74 129 -82q12 -10 30.5 -15t50 7.5t58.5 53.5q27 39 28 75.5t-10.5 53t-23.5 24.5l-129 84l10 16q14 8 39.5 17.5t94.5 9.5t124 -33q0 -2 8 -8t19.5 -13t15.5 -11q72 -65 72 -159q0 -28 -6 -59q-4 -20 -4 -36q0 -18 5 -30q9 -24 46 -65l170 -170 l202 207l148 -151l-195 -199l361 -324q38 -38 38 -89q0 -55 -40 -97q-38 -38 -91 -38h-2q-54 1 -94 40l-329 348l-308 -370q-23 -23 -55.5 -23t-54.5 23l-80 82q-23 20 -23 54t23 56l352 328l-170 164q-60 59 -109 59q-12 0 -24 -4q-32 -11 -63 -11q-53 0 -105 33 q-57 37 -87 95.5t-31 99.5zM748 1221q106 27 199 27q4 0 8 1q87 0 139 -11q54 -11 108.5 -46t68 -47t44.5 -43l108 -109q12 -12 15.5 -67.5t23.5 -77.5q27 -27 62 -27q16 12 36.5 10t32.5 -16l23 -24q20 -20 20 -40.5t-20 -41.5l-111 -113q-20 -20 -40 -20t-42 20l-24 27 q-14 12 -19.5 31.5t2.5 29.5q14 8 8 32.5t-30 49.5q-35 37 -78 43q-9 1 -17 1q-29 0 -42 -17l-43 -43l-152 149l25 25q6 6 18 20q22 22 22 47q0 26 -24 53q-59 57 -139 90t-130 36l-50 4zM1147 98.5q0 -28.5 18 -47.5q23 -20 51 -21h3q26 0 45 19q20 18 20 48t-20.5 50.5 t-48 20.5t-50.5 -21q-18 -20 -18 -48.5z" />
<glyph unicode="D" horiz-adv-x="1329" d="M164 379v283h375v358h292v-358h375v-283h-375v-379h-292v379h-375z" />
<glyph unicode="E" horiz-adv-x="1122" d="M113 123l440 774l444 -774h-884z" />
<glyph unicode="F" horiz-adv-x="1122" d="M111 856h884l-440 -774z" />
<glyph unicode="G" horiz-adv-x="1122" d="M82 498l836 424v-844z" />
<glyph unicode="H" horiz-adv-x="1576" d="M123 618q0 276 194.5 471t470.5 195q274 0 470 -194.5t196 -471.5q0 -274 -195.5 -469.5t-470.5 -195.5q-276 0 -470.5 195.5t-194.5 469.5zM674 963q0 -49 33.5 -84t83 -35t83 33.5t33.5 85.5q0 47 -33.5 80.5t-83 33.5t-83 -33.5t-33.5 -80.5zM692 172h199v571h-199 v-571z" />
<glyph unicode="I" horiz-adv-x="1122" d="M205 78v844l835 -420z" />
<glyph unicode="J" horiz-adv-x="1576" d="M123 618q0 276 194.5 471t470.5 195q274 0 470 -194.5t196 -471.5q0 -274 -195.5 -469.5t-470.5 -195.5q-276 0 -470.5 195.5t-194.5 469.5zM524 791h213q0 94 47 94q45 0 45 -94q0 -109 -114 -109q-18 0 -33 2v-201h213v84q158 41 158 224q0 117 -75 191.5t-192 74.5 q-129 0 -195.5 -68.5t-66.5 -197.5zM664 266q0 -51 36.5 -89t88 -38t88 38t36.5 89t-36.5 89t-88 38t-88 -38t-36.5 -89z" />
<glyph unicode="K" horiz-adv-x="1288" d="M123 491q0 214 153 371q156 152 365 152l-66 282l541 -372l-520 -396l47 301q-139 -2 -237.5 -100t-98.5 -235q0 -139 99.5 -238.5t238.5 -99.5t237.5 99.5t98.5 238.5h184q0 -217 -151 -369q-150 -154 -369 -154t-369 154q-153 153 -153 366z" />
<glyph unicode="L" horiz-adv-x="1333" d="M166 221l299 299l-297 293l199 203l297 -297l297 297l200 -203l-297 -293l299 -301l-202 -199l-297 299l-297 -299z" />
<glyph unicode="M" horiz-adv-x="1175" d="M82 467h348l-4 551h319v-555h349l-504 -502z" />
<glyph unicode="N" horiz-adv-x="1175" d="M82 555l504 502l508 -506h-349l5 -551h-320v555h-348z" />
<glyph unicode="O" horiz-adv-x="1409" d="M82 80q0 43 24 74l211 213l207 84q-109 131 -108 299q0 186 135 319t321 133q184 0 319.5 -135t135.5 -319q0 -193 -131 -324q-135 -135 -324 -135q-166 0 -297 108l-83 -204l-213 -213q-34 -25 -74 -25q-49 0 -86 38t-37 87zM592 748q0 -119 82 -201q86 -82 198 -82 q115 0 197 83t82 200q0 113 -83 195.5t-196 82.5q-115 0 -197.5 -83t-82.5 -195z" />
<glyph unicode="P" horiz-adv-x="1574" d="M123 625q0 274 194.5 467.5t471 193.5t470 -192.5t193.5 -468.5q0 -279 -192.5 -472.5t-471.5 -193.5q-276 0 -470.5 193.5t-194.5 472.5zM444 420l138 -139l206 206l203 -204l139 137l-204 205l204 204l-139 138l-203 -205l-206 207l-138 -140l207 -204z" />
<glyph unicode="S" />
<glyph unicode="T" />
<glyph unicode="U" />
<glyph unicode="V" />
<glyph unicode="W" horiz-adv-x="1100" />
<glyph unicode="X" horiz-adv-x="1100" />
<glyph unicode="Y" />
<glyph unicode="Z" />
<glyph unicode="[" />
<glyph unicode="\" />
<glyph unicode="]" />
<glyph unicode="^" />
<glyph unicode="_" />
<glyph unicode="`" />
<glyph unicode="a" />
<glyph unicode="b" />
<glyph unicode="c" />
<glyph unicode="d" />
<glyph unicode="e" />
<glyph unicode="f" />
<glyph unicode="g" />
<glyph unicode="h" />
<glyph unicode="i" />
<glyph unicode="j" />
<glyph unicode="k" />
<glyph unicode="l" />
<glyph unicode="m" horiz-adv-x="1144" />
<glyph unicode="n" />
<glyph unicode="o" />
<glyph unicode="p" />
<glyph unicode="q" />
<glyph unicode="r" />
<glyph unicode="s" />
<glyph unicode="t" />
<glyph unicode="u" />
<glyph unicode="v" />
<glyph unicode="w" />
<glyph unicode="x" />
<glyph unicode="y" />
<glyph unicode="z" />
<glyph unicode="{" />
<glyph unicode="|" />
<glyph unicode="}" />
<glyph unicode="~" />
<glyph unicode="&#xa0;" />
<glyph unicode="&#xa1;" />
<glyph unicode="&#xa2;" />
<glyph unicode="&#xa3;" />
<glyph unicode="&#xa5;" />
<glyph unicode="&#xa7;" />
<glyph unicode="&#xa8;" />
<glyph unicode="&#xa9;" />
<glyph unicode="&#xaa;" />
<glyph unicode="&#xab;" />
<glyph unicode="&#xac;" />
<glyph unicode="&#xad;" horiz-adv-x="1571" d="M0 514v342h203q4 13 9 25t11 25l-144 142l243 243l142 -144q13 6 25 9l25 8v206h342v-206l25 -8q12 -3 25 -9l142 144l243 -243l-143 -142l10 -25q5 -12 9 -25h203v-342h-203q-4 -13 -9 -25l-10 -25l143 -142l-243 -243l-142 143q-13 -5 -25 -8l-25 -8v-206h-342v206 l-25 8q-12 3 -25 8l-142 -143l-243 243l144 142q-6 13 -11 25t-9 25h-203zM514 681q0 -36 13.5 -67t36.5 -54t54 -36.5t67 -13.5t67 13.5t54 36.5t36.5 54t13.5 67q0 35 -13.5 66t-36.5 54.5t-54 37t-67 13.5t-67 -13.5t-54 -37t-36.5 -54.5t-13.5 -66z" />
<glyph unicode="&#xae;" />
<glyph unicode="&#xaf;" />
<glyph unicode="&#xb0;" />
<glyph unicode="&#xb1;" />
<glyph unicode="&#xb2;" horiz-adv-x="1551" d="M0 685q0 142 54 266.5t147 217.5t217.5 147t266.5 54t266.5 -54t217.5 -147t147 -217.5t54 -266.5t-54 -266.5t-147 -217.5t-217.5 -147t-266.5 -54t-266.5 54t-217.5 147t-147 217.5t-54 266.5zM342 599h685v171h-685v-171z" />
<glyph unicode="&#xb3;" horiz-adv-x="1674" d="M0 0v1201h172v-1029h1029v1029h172v-1201h-1373zM258 343v172h171v-172h-171zM258 686v172h171v-172h-171zM343 1115v172q0 18 7 33.5t18.5 27t27 18t33.5 6.5q36 0 61 -25t25 -60v-172q0 -18 -6.5 -33.5t-18.5 -27t-27.5 -18.5t-33.5 -7t-33.5 7t-27 18.5t-18.5 27 t-7 33.5zM601 343v172h171v-172h-171zM601 686v172h171v-172h-171zM858 1115v172q0 35 25 60t61 25q18 0 33.5 -6.5t27 -18t18.5 -27t7 -33.5v-172q0 -18 -7 -33.5t-18.5 -27t-27 -18.5t-33.5 -7t-33.5 7t-27.5 18.5t-18.5 27t-6.5 33.5zM944 343v172h171zM944 686v172h171 v-172h-171z" />
<glyph unicode="&#xb4;" />
<glyph unicode="&#xb5;" />
<glyph unicode="&#xb6;" />
<glyph unicode="&#xb7;" />
<glyph unicode="&#xb8;" />
<glyph unicode="&#xb9;" horiz-adv-x="1551" d="M0 686q0 142 54 267t147 218.5t218 147.5t267 54t267 -54t218 -147.5t147 -218.5t54 -267q0 -95 -24.5 -182.5t-69 -163.5t-107 -138.5t-139 -107.5t-164 -69.5t-182.5 -24.5t-182.5 24.5t-164 69.5t-139 107.5t-107 138.5t-69 163.5t-24.5 182.5zM343 686l342 -341v256 h344v171h-344v258z" />
<glyph unicode="&#xba;" horiz-adv-x="1377" />
<glyph unicode="&#xbb;" />
<glyph unicode="&#xbc;" horiz-adv-x="5131" d="M3599 282l392 392q-17 44 -28 91t-11 98q0 105 40 197.5t109.5 161t162 108.5t197.5 40t197.5 -40t161.5 -108.5t109 -161t40 -197.5t-40 -197.5t-109 -161.5t-161.5 -109t-197.5 -40q-51 0 -97.5 10t-91.5 27l-392 -392zM4124 863q0 -70 26.5 -131.5t72.5 -107 t107.5 -72t130.5 -26.5q70 0 131 26.5t107 72t72.5 107t26.5 131.5q0 69 -26.5 130.5t-72.5 107.5t-107 72.5t-131 26.5q-69 0 -130.5 -26.5t-107.5 -72.5t-72.5 -107.5t-26.5 -130.5zM0 686q0 142 54 267t147 218.5t218 147.5t267 54t267 -54t218 -147.5t147 -218.5 t54 -267q0 -95 -24.5 -182.5t-69 -163.5t-107 -138.5t-139 -107.5t-164 -69.5t-182.5 -24.5t-182.5 24.5t-164 69.5t-139 107.5t-107 138.5t-69 163.5t-24.5 182.5zM343 686l342 -341v256h344v171h-344v258z" />
<glyph unicode="&#xbd;" horiz-adv-x="5150" d="M3599 685q0 142 54 266.5t147 217.5t217.5 147t266.5 54t266.5 -54t217.5 -147t147 -217.5t54 -266.5t-54 -266.5t-147 -217.5t-217.5 -147t-266.5 -54t-266.5 54t-217.5 147t-147 217.5t-54 266.5zM3941 599h685v171h-685v-171zM0 686q0 142 54 267t147 218.5t218 147.5 t267 54t267 -54t218 -147.5t147 -218.5t54 -267q0 -95 -24.5 -182.5t-69 -163.5t-107 -138.5t-139 -107.5t-164 -69.5t-182.5 -24.5t-182.5 24.5t-164 69.5t-139 107.5t-107 138.5t-69 163.5t-24.5 182.5zM343 686l342 -341v256h344v171h-344v258z" />
<glyph unicode="&#xbe;" horiz-adv-x="5254" d="M3722 282l392 392q-17 44 -28 91t-11 98q0 105 40 197.5t109.5 161t162 108.5t197.5 40t197.5 -40t161.5 -108.5t109 -161t40 -197.5t-40 -197.5t-109 -161.5t-161.5 -109t-197.5 -40q-51 0 -97.5 10t-91.5 27l-392 -392zM4247 863q0 -70 26.5 -131.5t72.5 -107 t107.5 -72t130.5 -26.5q70 0 131 26.5t107 72t72.5 107t26.5 131.5q0 69 -26.5 130.5t-72.5 107.5t-107 72.5t-131 26.5q-69 0 -130.5 -26.5t-107.5 -72.5t-72.5 -107.5t-26.5 -130.5zM0 0v1201h172v-1029h1029v1029h172v-1201h-1373zM258 343v172h171v-172h-171zM258 686 v172h171v-172h-171zM343 1115v172q0 18 7 33.5t18.5 27t27 18t33.5 6.5q36 0 61 -25t25 -60v-172q0 -18 -6.5 -33.5t-18.5 -27t-27.5 -18.5t-33.5 -7t-33.5 7t-27 18.5t-18.5 27t-7 33.5zM601 343v172h171v-172h-171zM601 686v172h171v-172h-171zM858 1115v172q0 35 25 60 t61 25q18 0 33.5 -6.5t27 -18t18.5 -27t7 -33.5v-172q0 -18 -7 -33.5t-18.5 -27t-27 -18.5t-33.5 -7t-33.5 7t-27.5 18.5t-18.5 27t-6.5 33.5zM944 343v172h171zM944 686v172h171v-172h-171z" />
<glyph unicode="&#xc0;" horiz-adv-x="1624" d="M61 147q0 41 21 74l604 1045q40 73 125 73h2q84 0 127 -73l604 -1045q18 -33 19 -74q0 -63 -43 -105t-105 -42h-1204q-61 0 -105.5 43t-44.5 104zM692 266q0 -51 36 -86t87 -35t87 35t36 86q0 53 -36 89t-87 36q-53 0 -88 -36t-35 -89zM705 506h219v489h-219v-489z" />
<glyph unicode="&#xc1;" horiz-adv-x="1624" d="M61 147q0 41 21 74l604 1045q40 73 125 73h2q84 0 127 -73l604 -1045q18 -33 19 -74q0 -63 -43 -105t-105 -42h-1204q-61 0 -105.5 43t-44.5 104zM692 266q0 -51 36 -86t87 -35t87 35t36 86q0 53 -36 89t-87 36q-53 0 -88 -36t-35 -89zM705 506h219v489h-219v-489z" />
<glyph unicode="&#xc2;" horiz-adv-x="1624" d="M61 147q0 41 21 74l604 1045q40 73 125 73h2q84 0 127 -73l604 -1045q18 -33 19 -74q0 -63 -43 -105t-105 -42h-1204q-61 0 -105.5 43t-44.5 104zM692 266q0 -51 36 -86t87 -35t87 35t36 86q0 53 -36 89t-87 36q-53 0 -88 -36t-35 -89zM705 506h219v489h-219v-489z" />
<glyph unicode="&#xc3;" horiz-adv-x="1624" d="M61 147q0 41 21 74l604 1045q40 73 125 73h2q84 0 127 -73l604 -1045q18 -33 19 -74q0 -63 -43 -105t-105 -42h-1204q-61 0 -105.5 43t-44.5 104zM692 266q0 -51 36 -86t87 -35t87 35t36 86q0 53 -36 89t-87 36q-53 0 -88 -36t-35 -89zM705 506h219v489h-219v-489z" />
<glyph unicode="&#xc4;" horiz-adv-x="1624" d="M61 147q0 41 21 74l604 1045q40 73 125 73h2q84 0 127 -73l604 -1045q18 -33 19 -74q0 -63 -43 -105t-105 -42h-1204q-61 0 -105.5 43t-44.5 104zM692 266q0 -51 36 -86t87 -35t87 35t36 86q0 53 -36 89t-87 36q-53 0 -88 -36t-35 -89zM705 506h219v489h-219v-489z" />
<glyph unicode="&#xc5;" horiz-adv-x="1624" d="M61 147q0 41 21 74l604 1045q40 73 125 73h2q84 0 127 -73l604 -1045q18 -33 19 -74q0 -63 -43 -105t-105 -42h-1204q-61 0 -105.5 43t-44.5 104zM692 266q0 -51 36 -86t87 -35t87 35t36 86q0 53 -36 89t-87 36q-53 0 -88 -36t-35 -89zM705 506h219v489h-219v-489z" />
<glyph unicode="&#xc7;" horiz-adv-x="1724" d="M57 981l11 16q115 -74 129 -82q12 -10 30.5 -15t50 7.5t58.5 53.5q27 39 28 75.5t-10.5 53t-23.5 24.5l-129 84l10 16q14 8 39.5 17.5t94.5 9.5t124 -33q0 -2 8 -8t19.5 -13t15.5 -11q72 -65 72 -159q0 -28 -6 -59q-4 -20 -4 -36q0 -18 5 -30q9 -24 46 -65l170 -170 l202 207l148 -151l-195 -199l361 -324q38 -38 38 -89q0 -55 -40 -97q-38 -38 -91 -38h-2q-54 1 -94 40l-329 348l-308 -370q-23 -23 -55.5 -23t-54.5 23l-80 82q-23 20 -23 54t23 56l352 328l-170 164q-60 59 -109 59q-12 0 -24 -4q-32 -11 -63 -11q-53 0 -105 33 q-57 37 -87 95.5t-31 99.5zM748 1221q106 27 199 27q4 0 8 1q87 0 139 -11q54 -11 108.5 -46t68 -47t44.5 -43l108 -109q12 -12 15.5 -67.5t23.5 -77.5q27 -27 62 -27q16 12 36.5 10t32.5 -16l23 -24q20 -20 20 -40.5t-20 -41.5l-111 -113q-20 -20 -40 -20t-42 20l-24 27 q-14 12 -19.5 31.5t2.5 29.5q14 8 8 32.5t-30 49.5q-35 37 -78 43q-9 1 -17 1q-29 0 -42 -17l-43 -43l-152 149l25 25q6 6 18 20q22 22 22 47q0 26 -24 53q-59 57 -139 90t-130 36l-50 4zM1147 98.5q0 -28.5 18 -47.5q23 -20 51 -21h3q26 0 45 19q20 18 20 48t-20.5 50.5 t-48 20.5t-50.5 -21q-18 -20 -18 -48.5z" />
<glyph unicode="&#xc8;" horiz-adv-x="1122" d="M113 123l440 774l444 -774h-884z" />
<glyph unicode="&#xc9;" horiz-adv-x="1122" d="M113 123l440 774l444 -774h-884z" />
<glyph unicode="&#xca;" horiz-adv-x="1122" d="M113 123l440 774l444 -774h-884z" />
<glyph unicode="&#xcb;" horiz-adv-x="1122" d="M113 123l440 774l444 -774h-884z" />
<glyph unicode="&#xcc;" horiz-adv-x="1122" d="M205 78v844l835 -420z" />
<glyph unicode="&#xcd;" horiz-adv-x="1122" d="M205 78v844l835 -420z" />
<glyph unicode="&#xce;" horiz-adv-x="1122" d="M205 78v844l835 -420z" />
<glyph unicode="&#xcf;" horiz-adv-x="1122" d="M205 78v844l835 -420z" />
<glyph unicode="&#xd1;" horiz-adv-x="1175" d="M82 555l504 502l508 -506h-349l5 -551h-320v555h-348z" />
<glyph unicode="&#xd2;" horiz-adv-x="1409" d="M82 80q0 43 24 74l211 213l207 84q-109 131 -108 299q0 186 135 319t321 133q184 0 319.5 -135t135.5 -319q0 -193 -131 -324q-135 -135 -324 -135q-166 0 -297 108l-83 -204l-213 -213q-34 -25 -74 -25q-49 0 -86 38t-37 87zM592 748q0 -119 82 -201q86 -82 198 -82 q115 0 197 83t82 200q0 113 -83 195.5t-196 82.5q-115 0 -197.5 -83t-82.5 -195z" />
<glyph unicode="&#xd3;" horiz-adv-x="1409" d="M82 80q0 43 24 74l211 213l207 84q-109 131 -108 299q0 186 135 319t321 133q184 0 319.5 -135t135.5 -319q0 -193 -131 -324q-135 -135 -324 -135q-166 0 -297 108l-83 -204l-213 -213q-34 -25 -74 -25q-49 0 -86 38t-37 87zM592 748q0 -119 82 -201q86 -82 198 -82 q115 0 197 83t82 200q0 113 -83 195.5t-196 82.5q-115 0 -197.5 -83t-82.5 -195z" />
<glyph unicode="&#xd4;" horiz-adv-x="1409" d="M82 80q0 43 24 74l211 213l207 84q-109 131 -108 299q0 186 135 319t321 133q184 0 319.5 -135t135.5 -319q0 -193 -131 -324q-135 -135 -324 -135q-166 0 -297 108l-83 -204l-213 -213q-34 -25 -74 -25q-49 0 -86 38t-37 87zM592 748q0 -119 82 -201q86 -82 198 -82 q115 0 197 83t82 200q0 113 -83 195.5t-196 82.5q-115 0 -197.5 -83t-82.5 -195z" />
<glyph unicode="&#xd5;" horiz-adv-x="1409" d="M82 80q0 43 24 74l211 213l207 84q-109 131 -108 299q0 186 135 319t321 133q184 0 319.5 -135t135.5 -319q0 -193 -131 -324q-135 -135 -324 -135q-166 0 -297 108l-83 -204l-213 -213q-34 -25 -74 -25q-49 0 -86 38t-37 87zM592 748q0 -119 82 -201q86 -82 198 -82 q115 0 197 83t82 200q0 113 -83 195.5t-196 82.5q-115 0 -197.5 -83t-82.5 -195z" />
<glyph unicode="&#xd6;" horiz-adv-x="1409" d="M82 80q0 43 24 74l211 213l207 84q-109 131 -108 299q0 186 135 319t321 133q184 0 319.5 -135t135.5 -319q0 -193 -131 -324q-135 -135 -324 -135q-166 0 -297 108l-83 -204l-213 -213q-34 -25 -74 -25q-49 0 -86 38t-37 87zM592 748q0 -119 82 -201q86 -82 198 -82 q115 0 197 83t82 200q0 113 -83 195.5t-196 82.5q-115 0 -197.5 -83t-82.5 -195z" />
<glyph unicode="&#x152;" horiz-adv-x="2531" d="M1522 123l440 774l444 -774h-884zM82 80q0 43 24 74l211 213l207 84q-109 131 -108 299q0 186 135 319t321 133q184 0 319.5 -135t135.5 -319q0 -193 -131 -324q-135 -135 -324 -135q-166 0 -297 108l-83 -204l-213 -213q-34 -25 -74 -25q-49 0 -86 38t-37 87zM592 748 q0 -119 82 -201q86 -82 198 -82q115 0 197 83t82 200q0 113 -83 195.5t-196 82.5q-115 0 -197.5 -83t-82.5 -195z" />
<glyph unicode="&#x2000;" horiz-adv-x="686" />
<glyph unicode="&#x2001;" horiz-adv-x="1373" />
<glyph unicode="&#x2002;" horiz-adv-x="686" />
<glyph unicode="&#x2003;" horiz-adv-x="1373" />
<glyph unicode="&#x2004;" horiz-adv-x="457" />
<glyph unicode="&#x2005;" horiz-adv-x="343" />
<glyph unicode="&#x2006;" horiz-adv-x="228" />
<glyph unicode="&#x2007;" horiz-adv-x="228" />
<glyph unicode="&#x2008;" horiz-adv-x="171" />
<glyph unicode="&#x2009;" horiz-adv-x="274" />
<glyph unicode="&#x200a;" horiz-adv-x="76" />
<glyph unicode="&#x2010;" horiz-adv-x="1571" d="M0 514v342h203q4 13 9 25t11 25l-144 142l243 243l142 -144q13 6 25 9l25 8v206h342v-206l25 -8q12 -3 25 -9l142 144l243 -243l-143 -142l10 -25q5 -12 9 -25h203v-342h-203q-4 -13 -9 -25l-10 -25l143 -142l-243 -243l-142 143q-13 -5 -25 -8l-25 -8v-206h-342v206 l-25 8q-12 3 -25 8l-142 -143l-243 243l144 142q-6 13 -11 25t-9 25h-203zM514 681q0 -36 13.5 -67t36.5 -54t54 -36.5t67 -13.5t67 13.5t54 36.5t36.5 54t13.5 67q0 35 -13.5 66t-36.5 54.5t-54 37t-67 13.5t-67 -13.5t-54 -37t-36.5 -54.5t-13.5 -66z" />
<glyph unicode="&#x2011;" horiz-adv-x="1571" d="M0 514v342h203q4 13 9 25t11 25l-144 142l243 243l142 -144q13 6 25 9l25 8v206h342v-206l25 -8q12 -3 25 -9l142 144l243 -243l-143 -142l10 -25q5 -12 9 -25h203v-342h-203q-4 -13 -9 -25l-10 -25l143 -142l-243 -243l-142 143q-13 -5 -25 -8l-25 -8v-206h-342v206 l-25 8q-12 3 -25 8l-142 -143l-243 243l144 142q-6 13 -11 25t-9 25h-203zM514 681q0 -36 13.5 -67t36.5 -54t54 -36.5t67 -13.5t67 13.5t54 36.5t36.5 54t13.5 67q0 35 -13.5 66t-36.5 54.5t-54 37t-67 13.5t-67 -13.5t-54 -37t-36.5 -54.5t-13.5 -66z" />
<glyph unicode="&#x2012;" horiz-adv-x="1571" d="M0 514v342h203q4 13 9 25t11 25l-144 142l243 243l142 -144q13 6 25 9l25 8v206h342v-206l25 -8q12 -3 25 -9l142 144l243 -243l-143 -142l10 -25q5 -12 9 -25h203v-342h-203q-4 -13 -9 -25l-10 -25l143 -142l-243 -243l-142 143q-13 -5 -25 -8l-25 -8v-206h-342v206 l-25 8q-12 3 -25 8l-142 -143l-243 243l144 142q-6 13 -11 25t-9 25h-203zM514 681q0 -36 13.5 -67t36.5 -54t54 -36.5t67 -13.5t67 13.5t54 36.5t36.5 54t13.5 67q0 35 -13.5 66t-36.5 54.5t-54 37t-67 13.5t-67 -13.5t-54 -37t-36.5 -54.5t-13.5 -66z" />
<glyph unicode="&#x2013;" horiz-adv-x="1225" d="M0 514v342h152q3 13 6.5 25t8.5 25l-108 142l182 243l106 -144q10 6 19 9l18 8v206h256v-206l18 -8q9 -3 19 -9l106 144l182 -243l-107 -142l8 -25q3 -12 6 -25h152v-342h-152q-3 -13 -6 -25l-8 -25l107 -142l-182 -243l-106 143q-10 -5 -19 -8l-18 -8v-206h-256v206 l-18 8q-9 3 -19 8l-106 -143l-182 243l108 142q-5 13 -8.5 25t-6.5 25h-152zM384 681q0 -36 10 -67t27.5 -54t40.5 -36.5t50 -13.5t50 13.5t40.5 36.5t27.5 54t10 67q0 35 -10 66t-27.5 54.5t-40.5 37t-50 13.5t-50 -13.5t-40.5 -37t-27.5 -54.5t-10 -66z" />
<glyph unicode="&#x2014;" horiz-adv-x="2249" d="M0 514v342h303q6 13 13.5 25t16.5 25l-215 142l363 243l213 -144q19 6 37 9l37 8v206h512v-206l37 -8q18 -3 37 -9l213 144l363 -243l-214 -142l15 -25q8 -12 14 -25h303v-342h-303q-6 -13 -14 -25l-15 -25l214 -142l-363 -243l-213 143q-19 -5 -37 -8l-37 -8v-206h-512 v206l-37 8q-18 3 -37 8l-213 -143l-363 243l215 142q-9 13 -16.5 25t-13.5 25h-303zM768 681q0 -36 20.5 -67t55 -54t80.5 -36.5t100 -13.5t100 13.5t80.5 36.5t55 54t20.5 67q0 35 -20.5 66t-55 54.5t-80.5 37t-100 13.5t-100 -13.5t-80.5 -37t-55 -54.5t-20.5 -66z" />
<glyph unicode="&#x2019;" horiz-adv-x="1537" d="M0 514v344h714l-99 100l-86 86l-85 85l243 243l685 -686l-685 -686l-243 243l270 271h-714z" />
<glyph unicode="&#x201c;" horiz-adv-x="1551" d="M0 686q0 142 54 267t147 218t218 147t267 54t267 -54t218 -147t147 -218t54 -267t-54 -267t-147 -218t-218 -147t-267 -54t-267 54t-218 147t-147 218t-54 267zM343 600h344v-257l342 343l-342 342v-256h-344v-172z" />
<glyph unicode="&#x201d;" horiz-adv-x="1551" d="M0 686q0 142 54 267t147 218t218 147t267 54t267 -54t218 -147t147 -218t54 -267t-54 -267t-147 -218t-218 -147t-267 -54t-267 54t-218 147t-147 218t-54 267zM343 600h344v-257l342 343l-342 342v-256h-344v-172z" />
<glyph unicode="&#x2026;" horiz-adv-x="4653" d="M3102 686q0 142 54 267t147 218t218 147t267 54t267 -54t218 -147t147 -218t54 -267t-54 -267t-147 -218t-218 -147t-267 -54t-267 54t-218 147t-147 218t-54 267zM3449 468l121 -122l218 219l218 -219l121 122l-218 218l218 218l-121 121l-218 -218l-218 218l-121 -121 l218 -218zM1551 686q0 142 54 267t147 218t218 147t267 54t267 -54t218 -147t147 -218t54 -267t-54 -267t-147 -218t-218 -147t-267 -54t-267 54t-218 147t-147 218t-54 267zM1898 468l121 -122l218 219l218 -219l121 122l-218 218l218 218l-121 121l-218 -218l-218 218 l-121 -121l218 -218zM0 686q0 142 54 267t147 218t218 147t267 54t267 -54t218 -147t147 -218t54 -267t-54 -267t-147 -218t-218 -147t-267 -54t-267 54t-218 147t-147 218t-54 267zM347 468l121 -122l218 219l218 -219l121 122l-218 218l218 218l-121 121l-218 -218 l-218 218l-121 -121l218 -218z" />
<glyph unicode="&#x202f;" horiz-adv-x="274" />
<glyph unicode="&#x2039;" horiz-adv-x="1537" d="M0 685l685 685l685 -685l-242 -242l-272 271v-714h-342v714l-100 -100l-87 -86l-85 -85z" />
<glyph unicode="&#x203a;" horiz-adv-x="1757" d="M104 657l113 328h200q37 47 90.5 84t110.5 66l64 188h350l51 -188q65 -29 114.5 -66t86.5 -84h200l113 -328l-164 -112q-10 -66 -27.5 -128.5t-46.5 -109.5l62 -190l-289 -213l-164 127q-28 -11 -55 -12t-55 -1q-39 0 -68 1t-57 12l-164 -127l-289 213l64 190 q-29 47 -47.5 109.5t-28.5 128.5zM581 596q0 -51 21.5 -99t59.5 -85t88 -58.5t108 -21.5q51 0 98 21.5t84 58.5t58.5 85t21.5 99q0 55 -21.5 105.5t-58.5 88t-84 59t-98 21.5q-58 0 -108 -21.5t-88 -59t-59.5 -88t-21.5 -105.5z" />
<glyph unicode="&#x205f;" horiz-adv-x="343" />
<glyph unicode="&#x2122;" horiz-adv-x="3223" d="M2130 467h348l-4 551h319v-555h349l-504 -502z" />
<glyph unicode="&#xe000;" horiz-adv-x="500" d="M0 0v0v0v0v0z" />
</font>
</defs>
</svg>
